<svg version="1.1" id="Layer_1" xmlns="http://www.w3.org/2000/svg" xmlns:xlink="http://www.w3.org/1999/xlink" x="0px" y="0px"
	 width="100%" viewBox="0 0 1024 1024" enable-background="new 0 0 1024 1024" xml:space="preserve">
	 <rect width="100%" height="100%" fill="#70939a"/>
	 

<path fill="#000000" opacity="1.000000" stroke="none" 
	d="
M520.797485,728.804993 
	C520.225708,715.048950 520.225708,715.055542 506.845795,715.074036 
	C495.346802,715.089905 483.847717,715.067200 472.348907,715.116516 
	C470.564392,715.124207 468.666290,714.694946 466.465332,716.317322 
	C468.188568,725.101318 469.882141,734.179016 471.764618,743.217407 
	C474.135345,754.599792 474.201996,754.585876 486.041962,754.790527 
	C493.305573,754.915955 497.637146,757.923889 498.292236,763.297119 
	C499.004059,769.135559 495.279358,774.136719 489.378998,774.219238 
	C473.050537,774.447510 456.716003,774.415771 440.386017,774.259827 
	C435.205475,774.210388 430.976410,769.848267 430.756348,765.139648 
	C430.527191,760.236633 434.884735,755.448914 440.470428,754.858704 
	C443.604889,754.527527 446.796387,754.666382 449.960663,754.708557 
	C452.683380,754.744873 453.965240,753.958618 453.321838,750.857056 
	C450.925995,739.308105 448.817261,727.698975 446.354034,716.165100 
	C445.552521,712.411926 443.412903,709.183228 440.855408,706.237000 
	C395.961578,654.519531 351.094452,602.778870 306.230652,551.035278 
	C300.916748,544.906494 295.656158,538.731506 290.585236,532.827637 
	C288.732880,533.231506 288.487122,534.264587 288.140259,535.174133 
	C283.334747,547.774780 278.679382,560.435303 273.662140,572.950867 
	C272.181458,576.644470 273.252075,578.179382 276.486328,579.865662 
	C298.772034,591.485046 317.268982,607.478149 331.135620,628.528198 
	C344.072083,648.166321 351.798096,669.647888 354.473389,693.144348 
	C362.838837,766.615295 313.322662,837.252258 239.913437,853.649841 
	C166.339996,870.084045 89.646431,825.523987 68.869110,752.892822 
	C52.403297,695.333374 65.971474,644.830017 108.555389,602.846497 
	C131.056534,580.662598 158.858170,568.340637 190.313446,564.613159 
	C210.196594,562.256958 229.862686,563.482849 249.148270,568.996582 
	C252.454605,569.941833 254.182648,569.239685 255.334671,566.172607 
	C263.880585,543.420166 272.455261,520.678528 280.999451,497.925476 
	C281.096100,497.668121 280.907593,497.303680 280.796722,496.674408 
	C274.637573,496.084351 268.393951,495.574768 262.381836,493.495209 
	C242.518738,486.624756 227.224808,466.899963 226.661789,447.161011 
	C226.009705,424.299561 238.731735,404.177582 259.276062,395.659729 
	C267.198425,392.375031 275.416748,390.631012 284.052521,390.682495 
	C301.383728,390.785828 318.716034,390.705688 336.047882,390.701385 
	C336.881134,390.701172 337.715485,390.673798 338.547455,390.706635 
	C344.871674,390.956177 349.453888,395.268158 349.314423,400.824951 
	C349.178558,406.240265 344.752625,410.285858 338.526276,410.310852 
	C319.861511,410.385834 301.191742,410.088196 282.532623,410.422028 
	C268.479462,410.673462 256.811188,416.110138 249.942413,429.002045 
	C238.570465,450.345856 253.497269,475.850067 277.654449,476.722137 
	C288.845062,477.126099 288.832550,477.121002 293.088989,466.690216 
	C293.968658,464.534424 294.796448,462.324860 295.966980,460.326813 
	C298.687775,455.682373 303.927002,454.049194 308.448822,456.231262 
	C313.084259,458.468140 315.003326,463.261810 313.136078,468.407501 
	C309.558655,478.266266 305.874664,488.086334 302.253448,497.929291 
	C301.688232,499.465637 301.220673,501.037933 300.732300,502.519745 
	C302.448944,504.344788 304.397949,503.641510 306.111877,503.642548 
	C379.438934,503.686462 452.766113,503.654846 526.093018,503.770935 
	C530.160522,503.777374 532.865051,502.838867 533.930908,498.718872 
	C534.095703,498.082062 534.395325,497.462128 534.727356,496.889343 
	C539.242920,489.100250 541.140320,481.452728 534.236328,473.815033 
	C532.974243,472.418762 532.152222,470.236298 531.960938,468.332947 
	C531.379028,462.541565 527.910034,461.766449 522.963989,461.922974 
	C513.807800,462.212677 504.634796,462.007507 495.469360,461.938538 
	C493.145203,461.921021 490.794678,461.815277 488.505768,461.444427 
	C483.554688,460.642212 479.824921,456.351105 479.951263,451.864441 
	C480.075928,447.436798 483.606995,443.461243 488.455322,442.754669 
	C491.738129,442.276215 495.089478,442.128784 498.412872,442.094482 
	C508.077820,441.994843 517.744141,442.025574 527.409912,442.007660 
	C529.624146,442.003571 531.664368,441.924713 532.817871,439.415222 
	C539.494568,424.889374 551.845581,417.322998 566.165039,411.899780 
	C596.834961,400.284027 627.415955,388.433136 658.008545,376.614136 
	C664.294373,374.185669 668.884827,369.657410 672.496338,364.057983 
	C687.216187,341.235992 702.016602,318.465607 716.654663,295.591309 
	C735.147583,266.693298 762.001282,251.696243 795.651611,248.750732 
	C838.319275,245.015915 868.642151,270.830841 879.245117,309.347504 
	C888.951965,344.609009 896.610718,380.386444 905.267029,415.913361 
	C911.877319,443.042999 917.914917,470.319397 924.971802,497.330750 
	C930.324646,517.819763 929.151123,537.731506 921.155029,556.967957 
	C917.615356,565.483459 917.975830,573.705383 918.513611,582.243530 
	C919.349609,595.515869 920.404968,608.774231 921.333130,622.040894 
	C922.574707,639.788269 923.791260,657.537415 925.000793,675.287048 
	C925.283508,679.436096 925.643616,683.587769 925.710144,687.742310 
	C925.919312,700.813416 933.329224,711.343628 938.162964,722.718872 
	C949.690613,749.846985 962.221008,776.556091 973.416016,803.816528 
	C985.347473,832.870361 969.024170,863.690735 938.915405,870.666077 
	C919.456604,875.174011 896.979553,864.895020 886.966309,846.124146 
	C874.344727,822.463501 862.282898,798.504333 849.981567,774.672852 
	C846.161194,767.271851 842.684753,759.668823 838.464966,752.503296 
	C827.339417,733.611511 820.682983,713.189392 816.621582,691.782959 
	C816.010315,688.561096 815.432190,685.253418 813.394348,681.799072 
	C806.072327,687.395996 801.635071,694.393982 800.390259,703.309265 
	C796.300415,732.601990 792.284546,761.905090 788.240295,791.204163 
	C786.286560,805.357849 784.533081,819.542603 782.335876,833.658386 
	C778.301025,859.579651 755.752930,877.959229 729.639099,876.197998 
	C715.706543,875.258423 704.201599,868.691162 695.359741,857.877075 
	C693.194092,855.228394 691.362732,854.374023 687.822571,854.986023 
	C626.992859,865.501770 566.795776,832.243713 538.666565,781.888672 
	C529.463257,765.413513 523.561523,747.888489 520.797485,728.804993 
M877.019409,381.273102 
	C871.873779,360.103058 866.813965,338.911560 861.543762,317.772552 
	C859.155334,308.192261 855.781555,298.934540 849.682800,290.995544 
	C835.673523,272.758850 817.014038,265.240387 794.390869,268.195251 
	C770.424866,271.325439 749.887451,281.344788 736.047913,301.768066 
	C720.444702,324.794189 705.625549,348.356415 690.693298,371.830475 
	C682.995544,383.931641 672.914429,392.479523 659.257629,397.490936 
	C629.562439,408.387604 600.112244,419.952423 570.569214,431.263062 
	C564.612549,433.543610 558.893799,436.275391 554.678101,441.286530 
	C548.754822,448.327454 547.828552,456.239319 551.051819,464.690308 
	C554.218933,472.993927 560.732849,477.289093 569.166443,478.529053 
	C574.801880,479.357605 580.356018,478.372620 585.804871,476.295624 
	C621.897339,462.537720 658.034607,448.896759 694.184143,435.289154 
	C704.644592,431.351593 713.229797,424.929718 719.619324,415.863831 
	C726.335632,406.334320 732.590881,396.479431 739.028259,386.753937 
	C748.039307,373.139954 757.009949,359.499115 766.048889,345.903748 
	C768.414795,342.345215 771.622375,339.926453 776.129150,340.971741 
	C780.609009,342.010895 783.228577,345.228912 784.128174,349.654816 
	C784.900146,353.452667 782.615601,356.387665 780.697937,359.274658 
	C770.096375,375.234680 759.456055,391.169373 748.727905,407.044434 
	C746.840088,409.837952 746.198364,412.328735 747.077209,415.832916 
	C758.964661,463.229279 770.559265,510.699280 782.494263,558.083557 
	C784.087341,564.408081 783.311523,569.555176 779.880432,575.046936 
	C764.786682,599.205811 749.902344,623.496948 735.112732,647.843811 
	C728.572327,658.610657 720.792664,668.805786 718.728821,681.792114 
	C717.944397,686.728210 717.479675,691.676208 717.001892,696.640869 
	C715.521545,712.023438 713.877197,727.390137 712.322388,742.765625 
	C710.766907,758.147461 709.098633,773.519897 707.749023,788.920044 
	C706.617371,801.833801 704.267395,814.664978 704.412292,827.661133 
	C704.585876,843.236328 716.342957,856.024597 730.599854,856.689209 
	C747.379761,857.471375 760.469421,846.963135 762.652588,830.943970 
	C764.402161,818.106628 766.099548,805.262146 767.886475,792.430054 
	C771.803284,764.302673 775.854553,736.193604 779.665039,708.051941 
	C781.581421,693.898499 785.605164,680.951050 796.040161,670.377991 
	C814.650146,651.521545 832.886780,632.295837 851.225708,613.172852 
	C864.254883,599.586609 878.058350,586.700195 889.956421,572.082642 
	C905.876343,552.523865 912.384216,530.158264 906.677979,505.312408 
	C897.224243,464.149048 887.119568,423.135193 877.019409,381.273102 
M305.912079,791.428528 
	C329.188751,762.497864 339.458862,729.599609 334.617279,692.683838 
	C329.084473,650.497620 306.889618,619.280823 270.134216,598.130188 
	C265.983948,595.741943 264.546295,597.055359 262.995728,601.022522 
	C252.569839,627.697266 241.945953,654.294739 231.375122,680.912842 
	C227.380341,690.971985 223.468262,701.066223 219.302994,711.054626 
	C216.825394,716.995789 211.959946,719.315002 207.034851,717.383789 
	C201.475449,715.203796 199.509094,710.579712 201.521652,704.315125 
	C202.081299,702.573059 202.715439,700.852112 203.384033,699.148376 
	C214.698044,670.317688 226.033524,641.495544 237.338486,612.661377 
	C240.412964,604.819641 243.402802,596.944641 246.435486,589.074646 
	C245.449112,588.586914 245.023987,588.334167 244.568573,588.161133 
	C243.793213,587.866516 243.013535,587.561951 242.210297,587.365112 
	C205.282043,578.314392 170.361893,583.047058 138.306702,603.782104 
	C96.037361,631.124329 74.712257,683.508179 84.121635,733.875977 
	C96.146896,798.246399 154.914856,844.127441 223.701401,836.460266 
	C256.771515,832.774109 283.995361,817.439453 305.912079,791.428528 
M729.722168,619.285217 
	C732.493408,614.240479 736.065308,609.619751 738.218140,604.313232 
	C698.745667,577.159851 640.773804,577.238342 605.880127,598.174622 
	C605.893494,600.140991 607.278320,601.482727 608.242310,602.982483 
	C628.598328,634.650696 648.976746,666.304565 669.363831,697.952820 
	C674.905640,706.555664 671.518677,713.777954 661.328430,714.927063 
	C659.680359,715.112915 658.001343,715.055969 656.336609,715.056396 
	C620.014343,715.064697 583.692139,715.064697 547.369873,715.069092 
	C545.870544,715.069275 544.370972,715.118408 542.871887,715.105896 
	C540.324890,715.084534 539.239014,716.166199 539.660889,718.823547 
	C540.624084,724.889343 541.182312,731.031006 542.388733,737.044861 
	C553.856567,794.210754 605.387146,836.728394 663.641846,836.991943 
	C670.699097,837.023865 677.921570,837.625366 685.018799,835.159058 
	C684.634888,829.477844 684.419800,824.008240 685.024475,818.542419 
	C685.937683,810.288513 686.829224,802.031616 687.640991,793.767273 
	C689.102478,778.887817 690.460632,763.998169 691.930481,749.119629 
	C693.808167,730.112549 695.799194,711.116516 697.655396,692.107300 
	C699.043945,677.886902 702.108032,664.254150 709.905273,651.949341 
	C716.590759,641.398804 722.900574,630.610168 729.722168,619.285217 
M583.511475,564.033203 
	C586.209656,568.236633 589.179565,572.294861 591.526733,576.685913 
	C593.707520,580.765869 596.020142,580.912170 599.894531,578.905029 
	C616.487305,570.309387 634.260132,565.249268 652.817627,563.893616 
	C678.041687,562.051086 702.576477,565.600769 726.000732,575.682617 
	C733.929565,579.095215 741.457581,583.274841 749.217346,587.599854 
	C753.243286,580.987061 756.890564,574.648132 760.900879,568.547913 
	C763.087952,565.221069 763.431519,562.096985 762.460388,558.263123 
	C755.033691,528.944946 747.793579,499.579529 740.476379,470.233551 
	C737.402405,457.904907 734.282349,445.587738 731.011841,432.583771 
	C721.819885,443.244171 711.050415,450.083008 698.605042,454.689667 
	C663.034790,467.856018 627.556213,481.270844 592.069214,494.660950 
	C584.802307,497.402985 577.408508,498.824036 569.620117,498.368652 
	C565.289246,498.115448 561.277161,496.383392 556.783569,495.790985 
	C555.243286,499.238586 553.996338,502.697662 552.211487,505.852448 
	C550.066162,509.644257 550.401123,512.729126 552.823853,516.401733 
	C563.090942,531.965210 573.066040,547.721375 583.511475,564.033203 
M511.153290,549.743591 
	C514.927063,541.285828 518.700806,532.828064 522.770508,523.706970 
	C451.031128,523.706970 380.220734,523.706970 308.188171,523.706970 
	C355.686981,578.487061 402.474945,632.447327 449.813385,687.042480 
	C470.509644,640.724121 490.680573,595.581299 511.153290,549.743591 
M846.299072,724.237366 
	C856.786072,744.879700 867.210449,765.554138 877.779663,786.154297 
	C886.447632,803.048828 895.175110,819.914917 904.091370,836.679138 
	C910.090149,847.957825 921.185730,853.345276 933.750427,851.584106 
	C945.100342,849.993225 954.281677,841.478455 957.109436,829.729492 
	C958.905701,822.266052 957.167786,815.295532 954.129639,808.403442 
	C939.016479,774.118652 924.013794,739.784973 909.024841,705.445618 
	C908.034912,703.177795 906.972534,700.755432 906.802551,698.344482 
	C904.989929,672.635010 903.378601,646.911560 901.649841,621.196045 
	C901.007263,611.637939 900.201294,602.090881 899.524902,593.258057 
	C893.845947,598.515686 887.802734,603.687622 882.243713,609.336121 
	C865.531189,626.317688 849.002441,643.480042 832.417725,660.587097 
	C830.720825,662.337402 828.836914,663.765259 830.075684,666.979065 
	C831.861206,671.611206 832.958069,676.511169 834.308716,681.308105 
	C838.268311,695.370605 839.912659,710.072998 846.299072,724.237366 
M559.426331,563.016418 
	C553.172546,553.319519 546.918823,543.622681 540.473816,533.629211 
	C535.489441,541.778076 469.793579,690.035706 469.146210,694.593079 
	C470.796204,694.679199 472.419891,694.833679 474.043915,694.837463 
	C485.366089,694.863403 496.688324,694.864136 508.010559,694.861328 
	C519.799744,694.858459 519.799194,694.852661 521.912964,683.468628 
	C521.973572,683.142334 522.093933,682.827393 522.160828,682.501953 
	C529.403381,647.287720 546.798584,618.162720 574.621826,595.363403 
	C577.335693,593.139587 577.893982,591.417175 575.822388,588.358704 
	C570.316284,580.229492 565.123413,571.888062 559.426331,563.016418 
M547.170044,666.591736 
	C543.991638,675.488892 541.558044,684.551697 540.623596,694.325928 
	C574.980957,694.325928 608.894470,694.325928 643.746704,694.325928 
	C625.116882,665.366150 607.012695,637.223450 588.656189,608.688599 
	C568.747131,624.258850 555.915710,643.493530 547.170044,666.591736 
z"/>
<path fill="#000000" opacity="1.000000" stroke="none" 
	d="
M674.102173,62.931778 
	C711.388611,48.279449 745.798523,52.952991 776.824402,77.580872 
	C797.537048,94.022301 808.996582,116.070244 812.462646,142.415939 
	C819.037415,192.390457 785.698730,239.454224 737.878723,251.407440 
	C686.865112,264.158905 633.348389,232.433594 618.590576,181.847198 
	C604.287537,132.819275 630.446472,82.385742 674.102173,62.931778 
M787.423462,185.907486 
	C792.697327,171.939590 795.565552,157.736557 792.229492,142.689819 
	C788.259338,143.118759 785.260742,144.603119 782.184265,145.785416 
	C752.845032,157.060532 723.537048,168.417526 694.177246,179.638763 
	C684.515686,183.331390 674.461426,184.166855 664.242432,182.676300 
	C655.792603,181.443817 647.362549,180.076385 638.878967,178.761826 
	C638.569458,180.992523 639.462036,182.459579 640.034973,183.989807 
	C641.734070,188.527023 644.030396,192.764725 646.586365,196.870529 
	C663.999084,224.841827 697.586426,240.141403 729.459961,233.536652 
	C756.516907,227.929962 775.772949,211.929291 787.423462,185.907486 
M705.958801,74.407654 
	C677.136414,78.136581 656.309570,93.158279 642.346863,118.598526 
	C644.367188,119.976906 645.888733,119.656036 647.331055,119.606522 
	C674.935242,118.658844 702.536804,117.629150 730.143188,116.750778 
	C745.612549,116.258583 761.090332,116.036484 776.562378,115.619781 
	C778.609497,115.564644 780.971375,115.991005 782.449280,113.459274 
	C778.847412,106.645996 773.858643,100.864143 768.239563,95.652237 
	C750.925537,79.592880 730.311829,72.873856 705.958801,74.407654 
M682.142517,158.781372 
	C686.499146,156.959442 690.566589,154.726318 693.058289,150.485718 
	C694.336792,148.309692 695.492920,145.958420 694.094238,143.445160 
	C692.746948,141.024094 690.264771,141.040878 687.911438,141.194778 
	C677.807983,141.855576 667.706970,142.554977 657.607910,143.279510 
	C651.979065,143.683350 649.838806,147.528458 652.382324,152.597031 
	C654.340332,156.498856 657.973572,158.222122 661.823425,159.399857 
	C668.350464,161.396606 674.921570,161.242996 682.142517,158.781372 
z"/>
</svg>