<svg version="1.1" id="Layer_1" xmlns="http://www.w3.org/2000/svg" xmlns:xlink="http://www.w3.org/1999/xlink" x="0px" y="0px"
	 width="100%" viewBox="0 0 656 640" enable-background="new 0 0 656 640" xml:space="preserve">
	 
<path fill="#000000" opacity="1.000000" stroke="none" 
	d="
M391.436279,146.035400 
	C412.864838,150.556870 426.002838,163.029663 430.764374,184.087189 
	C431.881042,189.025696 431.303802,194.037003 431.350922,199.013351 
	C431.445557,209.003311 431.422516,218.995270 431.346680,228.985641 
	C431.295471,235.729645 428.040680,239.008636 421.262634,239.260010 
	C418.102783,239.377197 414.935760,239.310638 411.772003,239.311325 
	C356.155609,239.323380 300.539215,239.335953 244.922821,239.340668 
	C233.236694,239.341660 230.507904,236.690506 230.774200,224.812973 
	C231.076065,211.349274 229.792938,197.856186 231.649643,184.419098 
	C234.426483,164.322693 253.907837,145.995911 274.118988,145.804565 
	C312.413818,145.441986 350.714722,145.721817 389.013123,145.744873 
	C389.675293,145.745270 390.337433,145.872513 391.436279,146.035400 
z"/>
<path fill="#000000" opacity="1.000000" stroke="none" 
	d="
M265.086243,423.243408 
	C265.201324,419.785736 265.298889,416.792816 265.439484,413.801910 
	C265.654053,409.237183 267.368011,405.337189 271.036072,402.555115 
	C276.500183,398.410919 281.197723,393.443848 286.051422,388.666870 
	C291.166962,383.632111 296.908661,382.487000 303.433075,384.862579 
	C308.904358,386.854645 314.318176,389.021606 319.678558,391.296967 
	C327.050629,394.426208 334.200745,393.890076 341.409088,390.707153 
	C346.275208,388.558563 351.253357,386.648773 356.243561,384.800018 
	C362.411926,382.514709 367.978943,383.515198 372.824890,388.156494 
	C377.990601,393.104065 382.917877,398.293549 388.533020,402.783173 
	C391.783691,405.382294 393.326691,409.097778 393.326660,413.348145 
	C393.326660,437.165070 393.327301,460.981995 393.332550,484.798920 
	C393.333557,489.434540 391.787109,493.659637 387.838989,495.971985 
	C372.199249,505.131866 356.356140,513.963867 339.441284,520.613892 
	C330.824341,524.001587 322.281677,522.497375 314.301544,518.543579 
	C300.586914,511.748688 287.047729,504.596375 273.495361,497.478943 
	C268.798218,495.012085 265.846954,491.155609 265.519592,485.635803 
	C265.381866,483.313477 265.099487,480.992554 265.095490,478.670654 
	C265.063995,460.350159 265.083862,442.029602 265.086243,423.243408 
M284.686127,447.916504 
	C291.767120,451.750031 298.618683,451.426971 305.453003,447.113800 
	C310.796509,443.741547 316.297943,440.614105 321.788513,437.481873 
	C327.305878,434.334381 332.825317,434.463562 338.302521,437.731659 
	C344.017639,441.141663 349.861084,444.344025 355.489929,447.888916 
	C360.917206,451.306854 366.411377,451.344727 372.175110,449.106934 
	C383.558167,444.687439 384.856934,442.020599 381.114288,430.620331 
	C377.702942,420.229065 372.450928,416.342773 361.645081,416.335114 
	C340.507172,416.320099 319.369263,416.335785 298.231354,416.353699 
	C287.325256,416.362946 281.972168,419.934723 278.471008,430.314514 
	C274.085632,443.315826 273.345978,440.107758 284.686127,447.916504 
z"/>
<path fill="#000000" opacity="1.000000" stroke="none" 
	d="
M305.999878,282.410950 
	C272.335632,282.407379 239.171356,282.367096 206.007233,282.417450 
	C192.695679,282.437653 180.818359,278.244904 170.153839,270.494354 
	C160.269440,263.310791 159.031235,250.894714 167.236603,242.832520 
	C172.965286,237.203796 181.862564,236.070007 188.772308,241.093643 
	C195.915344,246.286896 203.522369,247.845398 212.184464,247.825943 
	C291.678192,247.647308 371.172607,247.682083 450.666626,247.795303 
	C458.758667,247.806839 465.555115,245.518127 471.636292,240.132477 
	C479.167023,233.463089 490.600769,234.133820 496.846375,241.176178 
	C503.424438,248.593399 502.642426,258.811707 494.735199,266.133331 
	C483.260590,276.758209 469.696503,282.347076 453.989288,282.360352 
	C404.826141,282.401825 355.663025,282.397308 305.999878,282.410950 
z"/>
<path fill="#000000" opacity="1.000000" stroke="none" 
	d="
M317.445160,335.065247 
	C312.056549,353.505646 298.735291,363.886353 279.170868,364.871674 
	C271.881012,365.238800 264.504456,365.399780 257.397156,363.229858 
	C245.438751,359.578888 237.467560,349.211700 236.579971,336.719604 
	C236.237244,331.895966 236.151031,327.123169 236.587402,322.290833 
	C237.587891,311.211517 246.798981,301.916199 257.999268,301.763550 
	C276.794159,301.507446 295.594849,301.683350 314.393066,301.653717 
	C316.710205,301.650085 318.963898,301.785004 318.932098,304.844788 
	C318.828674,314.797272 319.691681,324.800201 317.445160,335.065247 
z"/>
<path fill="#000000" opacity="1.000000" stroke="none" 
	d="
M422.874481,331.849365 
	C421.717133,349.812347 414.318054,360.784607 399.547974,363.551941 
	C381.564972,366.921234 363.969452,366.449371 350.123596,351.412689 
	C342.351624,342.972321 340.364899,332.764404 340.118683,321.896667 
	C340.001770,316.736603 340.159241,311.570435 340.052124,306.409943 
	C339.984650,303.159729 341.026337,301.594482 344.642181,301.620422 
	C363.293671,301.754395 381.948273,301.541077 400.598389,301.749786 
	C412.423523,301.882111 421.498688,310.962860 422.368530,322.930450 
	C422.573456,325.749695 422.712891,328.573700 422.874481,331.849365 
z"/>
</svg>