<svg version="1.1" id="Layer_1" xmlns="http://www.w3.org/2000/svg" xmlns:xlink="http://www.w3.org/1999/xlink" x="0px" y="0px"
	 width="100%" viewBox="0 0 1024 1024" enable-background="new 0 0 1024 1024" xml:space="preserve">
	  <rect width="100%" height="100%" fill="#ffffff"/>
<path fill="#000000" opacity="1.000000" stroke="none" 
	d="
M770.178955,491.722656 
	C796.190979,502.119171 821.885010,512.284119 847.470703,522.714722 
	C880.651550,536.241638 901.248718,560.882751 910.673584,595.184021 
	C913.749329,606.378113 913.776733,617.921082 913.873840,629.362732 
	C914.033630,648.183594 913.637085,667.011414 913.313293,685.833557 
	C912.997070,704.215210 898.611694,718.323120 880.289246,718.324951 
	C743.974854,718.338745 607.660156,718.172913 471.346497,718.484985 
	C448.613983,718.537048 435.481384,704.143372 434.871277,682.996826 
	C434.217896,660.352661 433.681396,637.614380 434.971405,615.024353 
	C437.444214,571.721375 459.805939,541.212097 499.221710,524.012878 
	C526.051575,512.305481 553.599304,502.212524 581.002808,491.865906 
	C591.674316,487.836731 596.774536,480.816193 596.584534,469.628052 
	C596.576050,469.128540 596.561890,468.623810 596.618530,468.129303 
	C597.765442,458.112061 595.065979,449.764130 588.777771,441.408264 
	C573.527344,421.143311 566.630859,397.308685 562.670166,372.560028 
	C560.463501,358.771637 558.292786,344.963104 558.707397,330.933411 
	C558.854431,325.957397 559.277832,320.971741 559.923340,316.036041 
	C560.228760,313.700592 559.737793,312.375519 557.695068,311.153229 
	C549.040344,305.974701 545.164978,298.292114 545.593506,288.173187 
	C545.896484,281.020325 545.632019,273.844269 545.656372,266.678680 
	C545.694580,255.450607 552.538574,245.971832 563.357361,242.840515 
	C566.177551,242.024261 566.886353,240.299484 567.685730,238.057236 
	C573.136108,222.769012 579.802979,208.133514 590.347595,195.542267 
	C606.638000,176.089920 626.958191,162.926987 651.941406,158.328140 
	C696.647583,150.098755 734.640808,162.321854 763.979065,197.873779 
	C773.497620,209.408279 779.820923,222.876846 784.281189,237.145645 
	C785.240967,240.216080 786.568359,242.154541 789.913208,243.267044 
	C800.704163,246.856216 807.770935,257.487427 806.826355,268.822235 
	C806.201233,276.324005 806.243958,283.813110 806.441772,291.288025 
	C806.676392,300.153015 802.512207,306.252472 795.360657,310.556763 
	C792.541321,312.253601 791.796143,313.788147 792.067078,317.231750 
	C795.437256,360.062683 788.206421,400.666840 765.847900,437.940186 
	C764.735291,439.795044 763.747009,441.866058 762.201355,443.296844 
	C751.194275,453.486572 755.237488,466.463623 756.179993,478.470398 
	C756.747375,485.699066 763.134827,489.402283 770.178955,491.722656 
M702.422424,558.262146 
	C686.479736,561.866455 670.476379,562.361450 654.377930,559.328552 
	C627.715759,554.305420 605.419006,542.411682 590.630859,518.786194 
	C588.993408,516.170227 587.582214,515.668335 584.618469,516.872437 
	C565.498535,524.640137 546.244934,532.078552 527.115601,539.823669 
	C516.326355,544.192017 504.986938,547.495544 495.185364,553.939026 
	C470.922150,569.889526 460.041931,593.228821 459.434174,621.638367 
	C459.017242,641.128723 459.340912,660.635132 459.372437,680.134338 
	C459.375122,681.784546 459.525940,683.464661 459.859467,685.078857 
	C461.199127,691.562744 462.730377,692.872681 469.272186,692.919373 
	C480.437958,692.999023 491.609650,692.784912 502.768158,693.088013 
	C507.375946,693.213318 508.850281,691.758972 508.751129,687.122864 
	C508.483887,674.629395 508.597656,662.125000 508.736145,649.626831 
	C508.824982,641.610168 511.900665,636.986572 517.566650,635.664429 
	C527.417847,633.365784 534.057983,638.828979 534.247742,649.849731 
	C534.457153,662.012024 534.268677,674.181152 534.251770,686.347290 
	C534.241638,693.622925 534.240112,693.642212 541.622986,693.642578 
	C629.119629,693.646912 716.616272,693.661255 804.112915,693.625916 
	C816.231506,693.621033 814.397644,695.111938 814.679077,682.920166 
	C814.970947,670.276978 813.798035,657.585083 815.684143,644.996948 
	C816.683960,638.324097 821.892334,634.516418 828.515747,635.259949 
	C836.365417,636.141113 840.187622,640.508484 840.269714,649.249268 
	C840.390198,662.080872 840.406799,674.916504 840.202942,687.746216 
	C840.140564,691.671387 841.429138,693.031860 845.362305,692.956970 
	C855.858093,692.757080 866.360229,692.912170 876.859741,692.876953 
	C886.360779,692.845093 888.655945,690.579224 888.671204,681.113403 
	C888.703247,661.280884 888.694824,641.448303 888.674011,621.615723 
	C888.638367,587.641602 870.012573,559.418945 838.735901,546.556824 
	C814.259216,536.491089 789.598328,526.873779 765.091553,516.879944 
	C762.122742,515.669250 760.984680,516.642456 759.594543,518.951172 
	C755.094543,526.424377 749.549866,533.012939 742.771545,538.582703 
	C731.097534,548.175110 717.765381,554.323853 702.422424,558.262146 
M698.471619,380.326019 
	C696.276978,379.546295 693.858704,379.127106 691.924744,377.927246 
	C680.866028,371.066559 670.435303,372.968048 658.873291,377.794037 
	C636.628357,387.079132 613.951660,387.952423 591.884277,376.221252 
	C591.350647,375.937592 590.654785,375.959106 590.054749,375.842224 
	C588.614380,377.897003 589.178833,379.953766 589.637024,381.783844 
	C596.445984,408.981537 609.055603,432.587738 631.443359,450.393250 
	C656.220215,470.098907 687.126770,472.113525 713.701782,454.937347 
	C740.945129,437.329163 754.908386,410.939758 762.178406,380.273071 
	C762.463867,379.068909 762.727234,377.955231 761.714722,377.045898 
	C760.284058,375.761139 758.918640,376.671021 757.572693,377.308716 
	C738.569702,386.312622 719.092468,386.635620 698.471619,380.326019 
M676.500000,292.681915 
	C705.658020,292.675812 734.816101,292.682343 763.974121,292.654724 
	C771.255676,292.647797 773.611023,290.303986 773.648682,283.179047 
	C773.677734,277.680817 773.680298,272.182281 773.663513,266.683990 
	C773.640503,259.157654 771.844910,257.251862 764.215515,257.223236 
	C745.887939,257.154419 727.559937,257.205994 709.232117,257.208557 
	C668.910828,257.214203 628.589539,257.203552 588.268250,257.237793 
	C579.678467,257.245087 578.226685,258.793823 578.210510,267.526154 
	C578.200989,272.691193 578.216553,277.856506 578.258240,283.021362 
	C578.321228,290.831848 580.180176,292.710327 588.026062,292.712555 
	C617.184021,292.720795 646.342041,292.695038 676.500000,292.681915 
M723.707214,478.351166 
	C689.283386,497.934967 655.273254,496.388428 621.663818,475.939972 
	C621.193726,476.864258 620.709534,477.420929 620.631653,478.029572 
	C619.622620,485.909393 617.200256,493.251465 612.529114,499.758728 
	C611.214661,501.589844 612.079651,503.166962 612.960327,504.841675 
	C617.256531,513.011047 623.333618,519.580811 631.276306,524.176941 
	C652.010376,536.174988 674.128540,538.430786 697.288086,533.164490 
	C714.308533,529.294067 727.978027,520.678406 737.241516,505.647858 
	C738.312683,503.909790 740.207581,502.054596 738.587830,499.768372 
	C733.357117,492.385284 731.287903,483.929626 730.274963,475.083954 
	C727.614441,475.161652 726.241455,477.113739 723.707214,478.351166 
M742.259033,342.716187 
	C742.765625,342.058655 743.331604,341.438324 743.769775,340.737946 
	C748.952759,332.453796 747.567261,328.700378 737.896790,327.117462 
	C724.824707,324.977753 712.499023,328.384033 700.793274,333.956146 
	C692.868042,337.728668 692.756836,342.615936 700.393005,347.327881 
	C712.855774,355.018158 730.384094,354.708160 742.259033,342.716187 
M624.881836,351.641479 
	C635.592651,353.980957 645.356995,351.782959 653.894043,345.010590 
	C658.985657,340.971436 658.809326,337.730591 653.205139,334.714661 
	C641.262024,328.287537 628.493103,325.355774 614.867004,327.124573 
	C611.577148,327.551605 607.724121,327.657135 606.546997,331.387848 
	C605.278259,335.408783 606.734253,339.217316 609.477722,342.468262 
	C613.367371,347.077393 618.381409,349.837891 624.881836,351.641479 
z"/>
<path fill="#000000" opacity="1.000000" stroke="none" 
	d="
M388.999939,503.280426 
	C339.003021,503.282928 289.506104,503.302673 240.009171,503.281158 
	C209.709229,503.268005 188.163803,484.072784 184.930832,453.847473 
	C183.812897,443.395813 187.304947,433.737305 192.428604,424.809387 
	C209.426468,395.190887 226.638367,365.695282 243.704834,336.116028 
	C268.678772,292.831787 293.516449,249.468704 318.587158,206.240692 
	C326.688324,192.272324 333.733246,177.673721 343.098694,164.452347 
	C361.924835,137.875000 402.295929,136.268753 423.396210,161.264252 
	C432.607788,172.176346 438.816223,185.007568 445.735535,197.327911 
	C484.730865,266.761963 525.871094,334.954254 565.212280,404.185272 
	C570.711731,413.863098 576.122559,423.744110 577.350525,435.115997 
	C579.878967,458.530243 572.189453,477.543030 552.913208,491.637787 
	C542.012573,499.608337 529.914062,503.302338 516.491516,503.287170 
	C474.161041,503.239319 431.830475,503.276154 388.999939,503.280426 
M445.487518,247.945496 
	C433.433441,227.021774 421.365723,206.105911 409.329132,185.172134 
	C397.130859,163.957123 372.508942,163.782532 360.193970,184.891464 
	C355.327209,193.233521 350.726074,201.730301 345.878021,210.083527 
	C328.909912,239.319962 311.559906,268.340179 294.960236,297.783752 
	C269.034668,343.769073 242.798721,389.566681 215.537094,434.774506 
	C211.667892,441.190796 209.207489,448.083893 210.765381,455.696289 
	C213.511353,469.114014 223.997803,477.698242 237.792145,477.713501 
	C288.611816,477.769745 339.431610,477.723053 390.251343,477.712982 
	C433.573120,477.704407 476.894989,477.738129 520.216614,477.658356 
	C535.672852,477.629883 548.981079,465.908203 551.805847,450.819244 
	C553.808289,440.123291 550.734985,430.684692 545.603333,421.754364 
	C512.413208,363.995361 479.098938,306.307739 445.487518,247.945496 
z"/>
<path fill="#000000" opacity="1.000000" stroke="none" 
	d="
M780.227051,835.017700 
	C780.215759,854.679626 780.080078,873.846741 780.284241,893.010132 
	C780.334045,897.682922 779.090088,899.987122 774.141907,899.284851 
	C773.161499,899.145691 772.133850,899.165833 771.146729,899.277710 
	C767.081177,899.738586 765.530884,898.097229 765.599548,893.904907 
	C765.798584,881.742126 765.661316,869.573853 765.656128,857.407776 
	C765.655579,856.116028 765.656006,854.824280 764.667786,853.252075 
	C762.903564,857.218811 761.095154,861.166626 759.383911,865.156128 
	C755.379700,874.491699 751.331604,883.810486 747.500854,893.217285 
	C746.359009,896.021118 744.970825,897.437744 741.700928,897.479248 
	C738.313171,897.522339 736.592773,896.274536 735.339417,893.230774 
	C730.521667,881.531250 725.514038,869.909912 720.558289,858.267456 
	C719.855713,856.616943 719.048523,855.010925 717.348999,853.488892 
	C717.348999,861.019592 717.351562,868.550293 717.348145,876.080994 
	C717.345276,882.247375 717.212524,888.416992 717.376953,894.578796 
	C717.467468,897.970947 716.278015,899.256653 712.781433,899.346069 
	C702.828308,899.600647 702.844727,899.735168 702.850952,889.900452 
	C702.863831,869.568115 702.975525,849.234680 702.779297,828.904297 
	C702.734192,824.224854 704.013916,822.355103 708.959167,822.585632 
	C721.309998,823.161133 719.012207,820.480713 724.091675,832.493835 
	C729.213196,844.606262 734.145630,856.798706 739.138245,868.965454 
	C739.698914,870.331726 739.989502,871.837280 741.961792,872.910583 
	C745.233337,864.838318 748.443054,856.854858 751.703552,848.892151 
	C754.668762,841.650696 757.855286,834.494385 760.613953,827.176086 
	C761.961609,823.601074 764.093018,822.137817 767.760925,822.662598 
	C767.924255,822.685974 768.093872,822.662598 768.260498,822.666260 
	C781.862976,822.963440 780.022034,820.456665 780.227051,835.017700 
z"/>
<path fill="#000000" opacity="1.000000" stroke="none" 
	d="
M170.803238,852.277832 
	C173.306244,840.085632 178.442154,830.191650 189.928116,824.851562 
	C210.824417,815.136414 235.264633,828.760010 238.426071,851.618713 
	C239.558853,859.809204 239.721558,867.814575 237.293930,875.773193 
	C232.709824,890.801758 219.098358,900.657349 203.515213,900.221924 
	C188.088409,899.790833 175.495575,889.372864 171.741577,873.974548 
	C170.027817,866.944946 170.030273,859.845764 170.803238,852.277832 
M203.622620,886.059570 
	C213.630096,885.799622 219.062057,881.886414 221.981796,872.505615 
	C224.631134,863.993652 224.366745,855.441833 221.218582,847.127380 
	C218.465317,839.856079 212.957932,836.143860 205.145950,835.949707 
	C196.910156,835.744995 191.376816,839.054260 188.419342,846.703979 
	C184.820526,856.012512 184.934021,865.582581 188.284393,874.916138 
	C190.647903,881.500305 195.335754,885.680420 203.622620,886.059570 
z"/>
<path fill="#000000" opacity="1.000000" stroke="none" 
	d="
M607.687988,828.123535 
	C607.299194,824.094482 608.622314,822.401184 612.440125,822.632080 
	C622.048645,823.213257 631.786560,821.410156 641.287048,823.770935 
	C656.912537,827.653809 664.947144,842.839172 659.354004,857.360596 
	C657.726746,861.585571 654.885864,864.875671 651.269409,867.262512 
	C648.233276,869.266479 648.335266,871.021729 649.999207,873.779846 
	C653.781799,880.050049 657.374939,886.436096 660.958923,892.823303 
	C661.911682,894.521301 663.342957,896.042786 663.454651,898.714722 
	C658.613342,899.804626 653.709900,899.294006 648.848450,899.062622 
	C646.888794,898.969360 646.335510,897.060730 645.563538,895.629150 
	C642.087952,889.183594 638.697693,882.691895 635.194031,876.261841 
	C633.257263,872.707520 627.524170,871.008728 624.041138,872.754089 
	C622.121460,873.716003 622.355591,875.454102 622.345764,877.081299 
	C622.309692,883.076111 622.254456,889.072388 622.355225,895.065613 
	C622.404541,897.994629 621.256897,899.143555 618.272400,899.330933 
	C607.692932,899.994995 607.691467,900.083313 607.689453,889.559753 
	C607.685669,869.243347 607.686523,848.926880 607.687988,828.123535 
M626.800659,858.957153 
	C629.461365,858.939270 632.130920,859.053467 634.780945,858.876526 
	C640.575806,858.489563 644.811707,854.779846 645.576416,849.613770 
	C646.377319,844.202820 643.220337,839.353333 637.616516,837.275085 
	C633.570251,835.774475 629.391052,836.452209 625.261780,836.464905 
	C622.850342,836.472229 622.346802,838.222351 622.354797,840.264709 
	C622.374268,845.254578 622.413696,850.245239 622.344299,855.234192 
	C622.309387,857.747314 623.435059,858.936401 626.800659,858.957153 
z"/>
<path fill="#000000" opacity="1.000000" stroke="none" 
	d="
M439.646667,846.999878 
	C439.649536,840.004456 439.638000,833.508972 439.664551,827.013672 
	C439.672791,824.994141 439.569153,822.716003 442.518738,822.769592 
	C452.150787,822.944458 461.838593,821.701904 471.405945,823.448120 
	C482.008850,825.383301 489.524536,831.400635 491.997162,842.017517 
	C494.586243,853.134521 491.053528,862.356323 481.068054,868.622009 
	C480.649292,868.884705 480.287720,869.238586 479.392914,869.956360 
	C484.660309,879.344421 489.888885,888.663208 495.385498,898.459717 
	C489.867798,899.844788 484.948578,899.314270 480.073914,899.007080 
	C478.178497,898.887634 477.541321,896.983704 476.786102,895.538208 
	C473.702362,889.636108 470.427856,883.813232 467.732971,877.735291 
	C465.789825,873.352844 462.886536,871.952087 458.325012,872.331055 
	C455.308685,872.581604 454.250519,873.776917 454.303741,876.679688 
	C454.410553,882.506836 454.149231,888.344482 454.379913,894.164307 
	C454.537872,898.149231 452.896820,899.327087 449.091705,899.353394 
	C439.648254,899.418640 439.648041,899.564026 439.647308,889.970215 
	C439.646179,875.813477 439.646973,861.656677 439.646667,846.999878 
M457.916748,836.376343 
	C455.443665,836.272217 454.248169,837.381653 454.323608,839.931152 
	C454.401978,842.579773 454.323486,845.232788 454.323029,847.883911 
	C454.320953,859.831970 454.322144,859.831970 466.405365,858.882019 
	C472.513336,858.401855 476.433716,854.988525 477.432617,849.281128 
	C478.249664,844.612915 474.807312,839.443054 469.603638,837.316589 
	C466.075378,835.874817 462.408966,836.543152 457.916748,836.376343 
z"/>
<path fill="#000000" opacity="1.000000" stroke="none" 
	d="
M305.790131,890.922974 
	C305.793549,870.109436 305.766998,849.783875 305.849060,829.458679 
	C305.857880,827.276001 304.749817,824.057251 307.464996,823.215149 
	C311.231903,822.046814 315.405212,822.051392 319.233643,823.351135 
	C320.762573,823.870117 320.300446,825.989746 320.309143,827.444885 
	C320.352936,834.775146 320.435974,842.107666 320.293579,849.435303 
	C320.230530,852.680908 321.500580,853.908997 324.699310,853.854553 
	C332.027832,853.729858 339.360840,853.720398 346.689575,853.828857 
	C349.808990,853.875000 350.716614,852.442749 350.679749,849.561218 
	C350.583771,842.065491 350.758331,834.565796 350.625580,827.071228 
	C350.569305,823.896729 351.689331,822.720154 354.941833,822.608521 
	C365.286926,822.253296 365.282043,822.136536 365.279602,832.646118 
	C365.274933,852.804993 365.141418,872.965271 365.361328,893.121704 
	C365.414368,897.985107 363.759155,899.495239 359.023956,899.363281 
	C350.679535,899.130859 350.670380,899.362305 350.659088,890.896484 
	C350.650421,884.398987 350.563019,877.899963 350.683960,871.404785 
	C350.739838,868.401489 349.571075,867.224731 346.567200,867.272278 
	C339.238495,867.388428 331.904572,867.423767 324.577332,867.271973 
	C321.198914,867.201965 320.276672,868.721802 320.329437,871.808411 
	C320.454773,879.136841 320.091370,886.483704 320.479950,893.793701 
	C320.723480,898.374512 319.010498,899.868347 314.774628,899.281372 
	C314.447876,899.236023 314.109070,899.277344 313.775879,899.278503 
	C305.843658,899.307129 305.843658,899.307068 305.790131,890.922974 
z"/>
<path fill="#000000" opacity="1.000000" stroke="none" 
	d="
M573.788574,899.257935 
	C549.994629,903.139954 533.816589,890.421387 531.541870,866.701904 
	C530.339600,854.165710 531.763916,842.381714 540.222717,832.427856 
	C555.186584,814.818970 585.314026,819.546021 594.177185,840.814758 
	C594.941895,842.649902 595.824524,844.483826 594.927490,846.968262 
	C591.515381,848.244751 587.711182,848.215515 583.915710,848.315247 
	C581.941162,848.367065 581.112244,847.447571 580.395630,845.606812 
	C577.488281,838.139099 571.313660,835.953735 563.939880,835.998657 
	C556.837341,836.041931 551.811890,839.267090 549.348999,845.994324 
	C545.604858,856.220825 545.485107,866.517761 549.499084,876.693054 
	C552.130005,883.362305 557.559692,886.539734 564.415771,886.398865 
	C571.241821,886.258789 577.069031,883.633728 579.991455,876.719971 
	C581.419556,873.341309 592.185913,871.138855 594.677551,873.765381 
	C596.123047,875.289124 595.394531,877.263611 594.925659,878.979919 
	C591.982422,889.754761 584.894653,896.335205 573.788574,899.257935 
z"/>
<path fill="#000000" opacity="1.000000" stroke="none" 
	d="
M808.010620,899.281738 
	C794.651245,899.280640 794.650452,899.280640 794.643616,886.394043 
	C794.633484,867.237854 794.804626,848.078735 794.496826,828.927307 
	C794.413025,823.715576 796.170715,822.424255 801.076782,822.565369 
	C812.228210,822.886230 823.398010,822.817566 834.554260,822.598816 
	C838.746338,822.516602 840.539307,823.600037 840.426147,828.164185 
	C840.223267,836.345581 840.475098,836.358887 832.318237,836.372498 
	C826.488098,836.382202 820.657898,836.361938 814.827759,836.373657 
	C813.664185,836.375977 812.056335,835.984741 811.409119,836.587158 
	C807.080933,840.615662 810.087830,845.867493 809.438293,850.542114 
	C808.996399,853.721497 811.575684,853.723694 813.832825,853.719971 
	C819.663025,853.710327 825.511230,853.991638 831.317871,853.619263 
	C836.279724,853.301147 837.987732,855.300232 837.367432,859.962891 
	C837.236755,860.945496 837.264893,861.965881 837.350769,862.957520 
	C837.626892,866.144531 836.294495,867.444763 833.025879,867.363586 
	C826.700012,867.206543 820.364136,867.449646 814.038635,867.285889 
	C810.706055,867.199585 809.339661,868.188171 809.269714,871.794922 
	C809.000916,885.654541 808.882690,885.652222 822.651672,885.652161 
	C828.625916,885.652161 834.600159,885.652161 839.968323,885.652161 
	C841.542114,886.750122 841.422668,887.836609 841.553406,888.789490 
	C842.918152,898.738708 842.442139,899.278870 832.496094,899.276733 
	C824.500366,899.275085 816.504578,899.279724 808.010620,899.281738 
z"/>
<path fill="#000000" opacity="1.000000" stroke="none" 
	d="
M399.287567,853.719727 
	C405.750244,853.720703 411.750549,853.840271 417.742615,853.670288 
	C421.218842,853.571716 422.660797,854.959656 422.341736,858.380005 
	C422.233917,859.535645 422.222992,860.722595 422.353241,861.874268 
	C422.808380,865.897644 421.285950,867.604797 417.041351,867.403748 
	C411.057892,867.120178 405.044189,867.503113 399.056641,867.266602 
	C395.279144,867.117371 394.233063,868.617371 394.188080,872.228699 
	C394.020599,885.677795 393.912445,885.674072 407.483337,885.658569 
	C412.314117,885.653076 417.148743,885.780090 421.974335,885.623108 
	C425.174774,885.518982 426.664673,886.722778 426.317017,889.973145 
	C426.281799,890.302124 426.316711,890.638916 426.323486,890.971985 
	C426.492615,899.270447 426.492737,899.281677 418.342194,899.285522 
	C407.181396,899.290833 396.019073,899.169983 384.860657,899.330505 
	C381.041718,899.385437 379.561127,898.163452 379.586456,894.178101 
	C379.727081,872.023987 379.734558,849.867859 379.579437,827.713867 
	C379.551300,823.696777 381.012329,822.550781 384.829376,822.607361 
	C396.653961,822.782532 408.484863,822.803711 420.308655,822.605469 
	C424.318848,822.538269 425.780548,824.060669 425.364227,827.877686 
	C425.238556,829.030090 425.218811,830.223816 425.366760,831.370789 
	C425.894806,835.464050 423.881165,836.516846 420.137115,836.413147 
	C413.146362,836.219482 406.141754,836.518860 399.151520,836.316650 
	C395.529175,836.211914 393.877563,837.352356 394.186920,841.140564 
	C394.403076,843.787781 394.368774,846.478210 394.178925,849.130188 
	C393.929626,852.612671 395.375946,854.108459 399.287567,853.719727 
z"/>
<path fill="#000000" opacity="1.000000" stroke="none" 
	d="
M291.928955,836.382019 
	C288.447479,836.376343 285.438782,836.544800 282.459442,836.321716 
	C278.479797,836.023682 277.281342,837.742188 277.313202,841.586304 
	C277.455231,858.726746 277.410889,875.869324 277.307129,893.010376 
	C277.294403,895.111511 278.533112,898.370789 275.340698,898.928711 
	C271.496582,899.600525 267.332123,900.202393 263.622803,898.393127 
	C262.030670,897.616638 262.696136,895.349792 262.692322,893.739014 
	C262.652008,876.597473 262.521759,859.453857 262.751160,842.315308 
	C262.812317,837.744995 261.453125,835.832764 256.814240,836.341614 
	C254.512741,836.594116 252.159332,836.374023 249.829407,836.366699 
	C242.644577,836.343994 242.644562,836.343811 242.656601,829.347290 
	C242.668045,822.698853 242.668045,822.679749 249.150299,822.674255 
	C263.462769,822.662109 277.780609,822.895935 292.084839,822.552917 
	C297.296112,822.427979 298.709290,824.206238 298.448700,829.130554 
	C298.222961,833.397217 298.714478,837.491272 291.928955,836.382019 
z"/>
<path fill="#000000" opacity="1.000000" stroke="none" 
	d="
M687.965820,897.648682 
	C684.083801,900.314819 680.052795,899.124756 676.163635,899.037109 
	C673.976074,898.987793 673.845825,896.950928 673.844055,895.265442 
	C673.820435,872.313110 673.840637,849.360840 673.801636,826.408569 
	C673.796814,823.570618 675.202820,822.797546 677.817200,822.633606 
	C688.348450,821.972900 688.356323,821.905884 688.328491,832.348083 
	C688.270813,853.966980 688.198975,875.585815 687.965820,897.648682 
z"/>
<path fill="#000000" opacity="1.000000" stroke="none" 
	d="
M403.891144,327.608124 
	C403.330994,336.201233 402.819244,344.328461 402.348328,352.458038 
	C401.963593,359.099579 401.862671,365.767029 401.211884,372.381287 
	C400.351410,381.126801 392.054260,387.716156 382.912659,387.324524 
	C374.502930,386.964233 367.070923,379.702667 366.674347,371.265869 
	C365.619904,348.835052 365.013214,326.374939 363.464783,303.979309 
	C362.740906,293.509705 363.064392,283.029633 362.071228,272.569855 
	C360.909637,260.336975 369.354492,249.457779 380.534943,247.782272 
	C391.832275,246.089249 403.506287,253.591904 405.793823,264.883179 
	C407.345612,272.542877 406.484406,280.495331 406.167175,288.297150 
	C405.640320,301.254395 404.714783,314.195435 403.891144,327.608124 
z"/>
<path fill="#000000" opacity="1.000000" stroke="none" 
	d="
M406.364197,425.063782 
	C407.326263,439.416412 394.933319,448.446533 383.890991,448.279144 
	C371.013794,448.083984 362.005615,437.359558 362.661072,423.265930 
	C363.172241,412.275330 374.297974,403.047516 386.262634,403.690552 
	C397.290619,404.283234 405.956879,413.305847 406.364197,425.063782 
z"/>
</svg>