<svg version="1.1" id="Layer_1" xmlns="http://www.w3.org/2000/svg" xmlns:xlink="http://www.w3.org/1999/xlink" x="0px" y="0px"
	 width="100%" viewBox="0 0 1024 1024" enable-background="new 0 0 1024 1024" xml:space="preserve">
	 <rect width="100%" height="100%" fill="#f09739"/>
<path fill="#000000" opacity="1.000000" stroke="none" 
	d="
M435.483276,96.375793 
	C441.745239,93.548897 447.625885,90.794785 453.593170,88.243423 
	C458.789001,86.021919 463.428131,83.917648 465.848053,77.777573 
	C468.268829,71.635277 476.609161,69.126961 483.546051,70.874680 
	C489.568085,72.391907 494.697998,78.533836 495.299927,84.993202 
	C495.392365,85.985268 495.346436,86.991226 495.346466,87.990761 
	C495.348053,163.132599 495.329926,238.274460 495.378418,313.416260 
	C495.382751,320.147278 493.160950,325.569672 487.051117,328.725525 
	C481.486938,331.599518 475.816162,331.362396 470.430389,327.988586 
	C467.200012,325.964935 464.783997,323.089935 463.925385,319.436035 
	C463.207489,316.380920 461.313293,314.977844 458.787323,313.876526 
	C423.700256,298.578949 388.613617,283.280365 353.528107,267.979279 
	C348.800262,265.917419 343.786285,264.325226 339.408386,261.681580 
	C325.008087,252.985947 309.206940,255.316696 293.682648,255.233810 
	C289.863770,255.213425 290.435425,257.405457 291.124603,259.953094 
	C296.067169,278.225159 300.967712,296.508728 305.809540,314.807709 
	C306.951050,319.122101 308.501190,323.328979 308.396790,327.952484 
	C308.185913,337.291748 301.373352,344.233459 291.945496,344.342438 
	C288.280548,344.384796 284.614624,344.362854 280.949219,344.344727 
	C271.276428,344.296875 265.230347,340.025635 262.575958,330.691162 
	C256.169434,308.161713 249.837326,285.608673 243.797073,262.979248 
	C242.276581,257.282837 239.989563,253.842270 233.945068,251.474884 
	C210.361633,242.238174 198.356537,222.336868 198.107254,200.348907 
	C197.820206,175.031998 216.519989,153.014694 241.697250,147.697525 
	C245.121628,146.974350 248.560898,146.584549 252.085358,146.592880 
	C273.744598,146.644150 295.408997,146.333099 317.060608,146.737106 
	C324.299225,146.872177 330.356354,144.276001 336.532715,141.469620 
	C369.417816,126.527443 402.273651,111.520897 435.483276,96.375793 
z"/>
<path fill="#000000" opacity="1.000000" stroke="none" 
	d="
M744.515076,586.923950 
	C744.383484,610.642944 746.016479,633.881653 747.111694,657.142090 
	C747.628113,668.110535 747.847229,679.092896 748.339783,690.062744 
	C749.077454,706.489319 751.074097,722.801880 753.071411,739.108948 
	C755.107666,755.734314 757.219116,772.350647 759.345520,788.964844 
	C760.798157,800.314880 762.254883,811.665527 763.879272,822.991699 
	C764.357239,826.324280 764.497681,829.644043 764.257812,832.948853 
	C763.868652,838.310425 759.304382,843.726990 753.681335,844.031799 
	C743.746338,844.570129 733.733398,845.243530 723.810974,843.496887 
	C716.771423,842.257812 712.892029,838.221375 711.501038,831.034424 
	C704.439636,794.550293 697.129395,758.114441 689.937378,721.655518 
	C689.199524,717.915283 688.682129,714.131836 688.036377,710.372925 
	C687.570129,707.658630 686.891785,704.662292 683.573730,704.652832 
	C680.292297,704.643433 679.616577,707.491028 679.093079,710.294312 
	C675.896179,727.413940 672.670837,744.528992 669.314026,761.617920 
	C664.644836,785.388000 659.912659,809.146118 655.077881,832.882996 
	C653.440247,840.923462 648.914856,844.339172 640.596619,844.362915 
	C632.265747,844.386658 623.934204,844.438110 615.604065,844.359619 
	C607.168030,844.280151 601.208496,838.201782 602.057678,829.923950 
	C603.445068,816.399658 605.285522,802.921448 606.972473,789.428467 
	C608.844482,774.455444 610.810852,759.494080 612.638916,744.515808 
	C614.286560,731.015747 615.858643,717.505859 617.349304,703.987610 
	C617.932495,698.698914 618.401855,693.382446 618.581604,688.067139 
	C619.369080,664.783142 619.819885,641.485535 620.847229,618.212952 
	C621.236389,609.397156 621.417236,600.580566 621.807373,591.772034 
	C622.070312,585.836060 620.117310,581.122375 616.264709,576.817383 
	C598.160217,556.587158 580.128235,536.291931 562.061157,516.028198 
	C550.865112,503.470856 539.609924,490.965881 528.463257,478.364929 
	C521.729004,470.752014 522.237854,458.772491 529.411194,452.173340 
	C536.591858,445.567413 548.627563,446.023132 555.539307,453.514679 
	C580.388794,480.448883 605.124023,507.488586 629.906555,534.484619 
	C631.596069,536.325073 633.638794,537.927795 634.974243,539.992310 
	C642.080933,550.979065 652.030945,553.805481 664.777588,552.936584 
	C680.864746,551.839966 697.087402,552.474792 713.243286,552.788757 
	C718.403870,552.889038 721.952393,551.203735 725.358826,547.472168 
	C747.365356,523.365723 769.545959,499.418182 791.658936,475.408783 
	C798.315491,468.181335 804.888733,460.876556 811.590759,453.691742 
	C818.430603,446.359161 830.635132,445.576813 837.856628,451.512695 
	C844.390381,456.883240 844.898499,472.098511 839.157837,478.366150 
	C810.360291,509.807861 782.062317,541.707031 753.591309,573.447754 
	C750.032654,577.415222 746.328674,581.285706 744.515076,586.923950 
z"/>
<path fill="#000000" opacity="1.000000" stroke="none" 
	d="
M359.541626,775.351807 
	C355.176971,753.282715 350.129852,731.778870 346.749603,709.953491 
	C346.266266,706.832642 345.318787,704.020203 342.002380,703.964905 
	C338.649994,703.908936 338.013855,707.274170 337.642426,709.816040 
	C331.880341,749.250427 321.620148,787.826965 315.306732,827.154602 
	C314.809937,830.249329 314.371277,833.399536 312.896637,836.270447 
	C310.238800,841.444824 306.256256,844.425171 300.229401,844.378967 
	C292.064758,844.316345 283.898743,844.422058 275.734314,844.346680 
	C267.037720,844.266479 260.763428,836.648865 261.868683,827.918335 
	C264.868500,804.222168 267.844971,780.522400 270.690308,756.807312 
	C273.081512,736.877014 275.446747,716.940430 277.472931,696.971069 
	C278.294067,688.878174 277.839569,680.697571 278.465759,672.540161 
	C279.407135,660.276611 279.243591,647.931580 279.711304,635.627380 
	C280.273590,620.836060 280.912109,606.046082 281.712616,591.266174 
	C282.003601,585.893188 280.210510,581.588867 276.693939,577.667175 
	C259.789154,558.815125 242.953629,539.900940 226.100830,521.002319 
	C213.130798,506.457825 200.139267,491.932343 187.220825,477.342133 
	C180.422806,469.664368 181.008835,458.104309 188.392929,451.354279 
	C195.854370,444.533569 206.535614,444.988739 213.824722,452.845123 
	C234.673111,475.315887 255.382370,497.915802 276.138519,520.472107 
	C284.936584,530.033142 293.784363,539.550110 302.456848,549.223938 
	C304.789948,551.826477 307.326294,552.733704 310.759369,552.714539 
	C332.088074,552.595520 353.418396,552.575806 374.746552,552.739197 
	C378.610382,552.768738 381.358490,551.506287 383.894928,548.727966 
	C406.128510,524.374023 428.436676,500.088104 450.716156,475.776031 
	C457.691711,468.164093 464.555939,460.447693 471.637909,452.936401 
	C478.527405,445.629272 489.261047,445.304535 496.771606,451.934875 
	C503.498657,457.873535 504.559326,470.390717 498.499084,477.339294 
	C485.145416,492.650482 471.573700,507.771637 458.077484,522.958313 
	C441.703827,541.382874 425.292084,559.773560 408.955017,578.230469 
	C405.655273,581.958313 404.057983,586.248657 404.214508,591.465149 
	C404.778778,610.270447 404.657990,629.101013 405.472076,647.892761 
	C406.185028,664.349792 406.417664,680.841187 407.543701,697.257935 
	C408.677551,713.789490 411.192688,730.227295 413.137329,746.702026 
	C414.848541,761.199280 416.569489,775.695496 418.357758,790.183411 
	C419.841125,802.201416 421.241058,814.234558 423.025360,826.209290 
	C424.672302,837.262207 418.929810,844.341492 407.761353,844.369446 
	C400.429413,844.387756 393.097015,844.414368 385.765594,844.350647 
	C377.922424,844.282532 372.463684,840.370056 370.910095,832.888611 
	C366.964264,813.886719 363.346313,794.816650 359.541626,775.351807 
z"/>
<path fill="#000000" opacity="1.000000" stroke="none" 
	d="
M750.000000,412.959381 
	C561.059753,412.945160 372.619476,412.933868 184.179199,412.896698 
	C179.523407,412.895782 174.853195,412.786987 170.215347,412.411560 
	C163.364655,411.856934 158.785828,406.961884 158.211182,399.968781 
	C157.696396,393.703735 162.034439,388.133270 168.512558,386.536316 
	C171.313812,385.845734 174.128052,385.911377 176.955551,385.911224 
	C401.551514,385.900360 626.147522,385.894043 850.743469,385.870544 
	C854.457581,385.870178 858.098328,386.103027 861.308167,388.190491 
	C865.824341,391.127380 868.164917,397.181610 866.800415,402.138702 
	C864.965088,408.806305 860.998901,412.322876 854.442871,412.411041 
	C834.958740,412.673065 815.472534,412.798523 795.986755,412.900421 
	C780.824768,412.979736 765.662292,412.943726 750.000000,412.959381 
z"/>
<path fill="#000000" opacity="1.000000" stroke="none" 
	d="
M336.826691,542.444031 
	C314.171844,539.311157 296.676880,520.127258 295.673859,497.754333 
	C294.586792,473.507233 309.847717,452.977539 332.990997,447.745636 
	C358.026215,442.086029 384.269226,458.802551 389.545166,486.313080 
	C395.116608,515.364380 372.795532,543.238159 341.200500,543.099976 
	C339.885742,543.094238 338.572723,542.696899 336.826691,542.444031 
z"/>
<path fill="#000000" opacity="1.000000" stroke="none" 
	d="
M640.754272,514.978455 
	C629.256409,488.440033 640.635254,462.983978 661.983032,451.833435 
	C692.464478,435.912140 729.373230,458.548279 730.538208,492.973633 
	C731.349915,516.957703 714.635010,536.194519 696.329163,541.372070 
	C673.787048,547.747864 652.987366,538.057617 640.754272,514.978455 
z"/>
<path fill="#000000" opacity="1.000000" stroke="none" 
	d="
M619.000000,188.982605 
	C633.144653,189.300125 646.810486,188.302109 660.438416,189.625488 
	C666.723206,190.235809 670.118164,193.947647 670.839966,200.928360 
	C671.409851,206.440475 668.474915,211.097275 662.797852,212.433838 
	C655.653870,214.115768 648.247070,213.997360 640.970703,214.054657 
	C611.155762,214.289474 581.338074,214.171158 551.521362,214.185440 
	C542.763062,214.189636 537.783264,209.383072 537.658081,200.792648 
	C537.545532,193.067902 541.876404,189.095932 551.039307,188.948090 
	C560.364502,188.797592 569.694214,188.926071 579.021973,188.935822 
	C592.181335,188.949585 605.340637,188.966492 619.000000,188.982605 
z"/>
<path fill="#000000" opacity="1.000000" stroke="none" 
	d="
M557.826843,123.766281 
	C582.525574,107.053017 606.588867,90.069923 630.067139,72.256264 
	C636.821838,67.131302 642.433960,67.460320 647.580811,72.441856 
	C653.182007,77.863190 652.962830,85.827705 646.508789,90.547043 
	C629.714600,102.827362 612.731079,114.849434 595.787415,126.924370 
	C583.312683,135.814529 571.125732,145.081345 559.086792,154.549957 
	C550.814453,161.056152 540.429382,157.319656 538.107422,147.029968 
	C537.134094,142.716644 538.967590,139.244705 541.760742,136.161667 
	C546.289917,131.162537 552.231201,127.975929 557.826843,123.766281 
z"/>
<path fill="#000000" opacity="1.000000" stroke="none" 
	d="
M613.490356,320.537842 
	C592.315979,303.009796 569.856628,287.798615 548.112305,271.630585 
	C545.986389,270.049866 543.899475,268.346344 542.093079,266.419769 
	C536.941772,260.925659 536.418457,254.185043 540.559265,249.271896 
	C544.371338,244.748764 551.463257,243.993561 557.316528,248.170563 
	C565.297729,253.866150 572.941406,260.034698 580.731506,265.998230 
	C600.933289,281.463287 621.556885,296.354553 642.141846,311.300903 
	C645.779297,313.942017 650.073242,316.210480 650.463257,321.812958 
	C650.840576,327.233276 648.856018,331.203491 644.522705,334.131256 
	C640.120239,337.105835 635.606262,336.609985 631.464966,333.730225 
	C625.462891,329.556549 619.659485,325.097107 613.490356,320.537842 
z"/>
</svg>