<svg version="1.1" id="Layer_1" xmlns="http://www.w3.org/2000/svg" xmlns:xlink="http://www.w3.org/1999/xlink" x="0px" y="0px"
	 width="100%" viewBox="0 0 1024 1024" enable-background="new 0 0 1024 1024" xml:space="preserve">
	 <rect width="100%" height="100%" fill="#60c546"/>
<path fill="#000000" opacity="1.000000" stroke="none" 
	d="
M651.895874,547.714355 
	C671.350708,527.586426 690.526001,507.656891 709.807312,487.830475 
	C715.881348,481.584686 723.741394,477.609131 730.912415,472.135620 
	C683.287964,458.281586 658.529846,426.699005 661.411438,377.530273 
	C663.896851,335.120270 694.770935,302.924744 733.180054,295.876740 
	C772.872559,288.593262 809.471436,306.762390 828.310181,341.998322 
	C839.171448,362.313202 841.224609,383.870239 836.044067,405.923584 
	C830.876648,427.921082 818.671021,445.668243 799.589111,458.893799 
	C802.668213,461.325378 805.841431,460.968811 808.603821,461.511078 
	C854.730286,470.565674 889.615845,507.954468 896.506714,554.851379 
	C900.219971,580.122803 905.213135,605.205505 909.584595,630.381104 
	C913.869751,655.060181 917.482849,679.875305 922.510864,704.401123 
	C928.583862,734.024597 925.390564,763.780396 925.541199,793.502808 
	C925.634888,811.983582 925.697388,830.464539 925.830688,848.945007 
	C925.954468,866.109558 926.267456,883.273499 926.264343,900.437744 
	C926.263123,907.390442 920.781006,912.238525 913.509155,912.378479 
	C905.071289,912.540833 898.434448,906.903625 897.811096,898.854126 
	C897.593201,896.039795 897.833618,893.191467 897.831482,890.358704 
	C897.791199,837.028564 897.970520,783.696838 897.574585,730.369263 
	C897.443481,712.708557 892.593506,695.577148 889.446228,678.270081 
	C885.053345,654.113708 881.075134,629.881470 876.610840,605.738770 
	C873.082947,586.660156 870.734436,567.348450 865.631226,548.573914 
	C856.736511,515.850830 828.359863,491.575500 794.792725,487.194397 
	C770.252014,483.991364 749.406677,491.923706 731.355103,507.686371 
	C712.644287,524.024658 696.675842,543.199219 678.644287,560.270813 
	C673.804993,564.852478 669.002686,569.473145 664.165161,574.056641 
	C657.682556,580.198914 650.400391,580.979492 642.554626,577.055298 
	C611.552368,561.548889 579.276855,548.902527 547.652832,534.793457 
	C542.182434,532.352783 536.532776,530.171509 530.291870,531.895874 
	C520.937195,534.480591 515.811401,541.584412 511.811493,549.634338 
	C510.438995,552.396545 511.057159,555.686523 513.168640,558.117798 
	C521.837769,568.099915 531.226990,576.698975 545.742493,576.783386 
	C553.969360,576.831177 561.165161,580.497803 567.912781,584.989441 
	C590.380310,599.945129 612.059692,616.018066 634.008606,631.706604 
	C641.359253,636.960693 649.174011,640.876587 658.243103,641.303589 
	C666.771179,641.705261 674.804871,639.083435 681.853638,634.509521 
	C698.199280,623.902832 714.283081,612.891418 730.431458,601.982483 
	C737.331787,597.321045 744.102600,592.468079 750.982117,587.775146 
	C754.835266,585.146667 758.993652,583.657959 763.699768,585.299133 
	C768.056396,586.818420 771.350586,589.511230 772.235840,594.231995 
	C773.424988,600.573242 771.077209,605.790344 766.112976,609.628723 
	C759.262939,614.925171 752.425049,620.309692 745.109680,624.904541 
	C740.789917,627.617798 740.649475,630.574646 741.575745,634.802673 
	C747.684143,662.686096 753.649902,690.600708 759.671692,718.503113 
	C761.371521,726.379578 760.231812,733.813416 755.636108,740.431824 
	C741.196838,761.226562 726.620667,781.926270 712.089966,802.657532 
	C706.927917,810.022278 701.968323,817.542419 696.527100,824.695496 
	C681.892822,843.934204 676.269653,866.748596 670.355347,889.472229 
	C669.184021,893.972839 668.300354,898.555725 666.327148,902.815125 
	C663.163330,909.644470 656.835327,912.787842 649.490662,911.158813 
	C643.648804,909.863098 639.802612,904.293579 639.614136,897.288574 
	C639.504639,893.217285 640.342285,889.384583 641.503906,885.537476 
	C645.444275,872.487549 649.720825,859.519287 653.084167,846.319885 
	C657.210632,830.125427 667.504761,817.577271 676.599854,804.301697 
	C693.729797,779.298035 711.009888,754.396851 728.322693,729.519287 
	C730.847778,725.890869 731.702820,722.404541 730.703064,717.943787 
	C725.729431,695.752258 721.076294,673.488953 716.210632,651.272766 
	C715.910339,649.901489 716.081848,648.213684 714.291626,646.809631 
	C710.028687,648.531555 706.461426,651.816284 702.502197,654.394165 
	C679.207703,669.561462 654.916748,672.535950 629.660278,659.912109 
	C616.957214,653.562866 605.927307,644.506165 594.354980,636.360779 
	C581.280457,627.158020 568.314209,617.801514 555.300598,608.512146 
	C551.138184,605.540955 546.420776,603.269043 541.422058,603.519714 
	C528.989868,604.143433 518.701721,599.503174 509.217041,591.674561 
	C505.531860,594.935730 503.711182,599.269714 501.198303,603.083130 
	C499.667908,605.405640 501.572479,606.339966 503.199036,607.253296 
	C507.701477,609.781250 512.205017,612.307983 516.731262,614.792847 
	C531.426514,622.860291 536.484497,633.568176 533.353699,650.007751 
	C533.172119,650.960999 533.109497,651.936829 532.966919,653.103760 
	C537.102539,654.161133 541.090149,653.576599 545.024109,653.632324 
	C556.167236,653.790161 562.649780,660.081970 563.359558,671.164734 
	C564.781799,693.371033 566.959778,715.513611 569.126648,737.658691 
	C570.760132,754.353027 571.890442,771.096069 573.408142,787.802551 
	C574.247986,797.048767 575.657837,806.221313 573.408569,815.502136 
	C567.743835,838.876282 545.829895,856.303894 521.743469,856.361694 
	C511.910553,856.385315 502.070587,856.588379 492.247925,856.272156 
	C487.994080,856.135254 486.232391,857.686340 484.791931,861.594727 
	C476.363190,884.464478 460.723419,899.586365 436.485535,904.742126 
	C431.325867,905.839722 425.905975,906.071594 420.604095,906.087585 
	C364.773468,906.256042 308.942322,906.238770 253.111710,906.410217 
	C233.118942,906.471619 213.118332,906.614990 193.137100,907.231995 
	C155.499405,908.394043 125.828384,876.190979 121.939018,844.745667 
	C120.634613,834.199646 121.668411,823.489807 123.022835,812.877930 
	C124.766624,799.215210 126.139557,785.505005 127.660576,771.814026 
	C129.218262,757.793213 130.791489,743.774048 132.303986,729.748352 
	C134.119720,712.910828 135.855896,696.064636 137.669098,679.226807 
	C139.091202,666.020752 140.584854,652.822449 142.034424,639.619385 
	C143.592087,625.431580 145.133667,611.242126 146.685486,597.053711 
	C148.093201,584.182983 149.459671,571.307556 150.930069,558.443970 
	C152.060104,548.557800 153.118088,538.656433 154.577454,528.816589 
	C156.576187,515.340088 162.095657,509.976105 175.681107,509.836639 
	C189.808456,509.691589 203.958939,510.516602 218.074356,511.343506 
	C221.860367,511.565308 222.696701,510.432068 222.775909,507.062897 
	C223.041885,495.751801 222.509293,484.453918 223.528152,473.120789 
	C226.646652,438.432800 243.646698,413.586853 275.753082,400.142914 
	C317.420410,382.695404 363.811493,401.211639 382.849396,442.142914 
	C387.979431,453.172394 389.895813,464.970062 390.267090,477.005646 
	C390.544434,485.997009 390.332458,495.003265 390.348419,504.002899 
	C390.360809,510.990784 390.369446,510.805573 397.125000,510.870514 
	C411.769836,511.011292 426.397644,509.817139 441.054718,510.601532 
	C452.739532,511.226837 458.986481,517.905945 459.424957,529.723816 
	C460.127777,548.667236 461.394196,567.589233 462.254517,586.527893 
	C462.426758,590.319519 465.325287,590.445251 467.640686,591.382690 
	C474.499573,594.159546 474.523987,594.111389 478.619049,588.050537 
	C479.924286,586.118835 481.012085,584.003296 482.528473,582.257812 
	C488.116058,575.825684 490.047729,569.456970 486.621185,560.682678 
	C483.223297,551.981873 486.125366,542.898682 490.873657,534.906067 
	C495.316467,527.427795 500.784302,520.689026 507.296631,514.886780 
	C519.190308,504.289795 533.085938,502.623718 547.970459,506.281860 
	C563.767395,510.164246 578.045227,517.932068 592.853760,524.314514 
	C610.744385,532.025269 628.515930,540.012451 646.344604,547.867188 
	C648.084961,548.633972 649.851196,550.241821 651.895874,547.714355 
M340.670013,785.351624 
	C341.986511,769.292664 343.359955,753.238037 344.605804,737.173645 
	C346.353180,714.642334 348.018066,692.104492 349.692993,669.567627 
	C350.425140,659.715759 355.441223,654.098328 365.160797,652.332092 
	C371.449158,651.189453 377.795227,651.916931 384.112823,651.763428 
	C386.497528,651.705444 387.987396,651.103455 389.152924,648.712219 
	C396.596802,633.440552 404.356567,618.322754 411.781067,603.041870 
	C415.505829,595.375671 421.192230,590.164490 429.303223,587.817505 
	C432.564667,586.873840 433.830811,585.401611 433.766479,581.891907 
	C433.543579,569.730164 433.400391,557.554443 433.766510,545.400330 
	C433.924255,540.163879 431.537811,538.589050 427.077850,538.435486 
	C416.427612,538.068726 405.772461,537.814941 395.127991,537.326538 
	C391.384338,537.154785 390.192139,538.577332 390.269623,542.250793 
	C390.466339,551.579102 390.543488,560.921082 390.252380,570.244568 
	C390.076874,575.865173 388.610260,581.387512 383.042297,584.177734 
	C377.800598,586.804321 372.635132,585.384399 367.897064,582.385681 
	C362.525024,578.985779 361.449493,573.465393 362.055206,567.903442 
	C362.998962,559.236572 362.283417,550.586975 362.692108,541.944946 
	C362.856537,538.468506 361.522522,537.308167 358.050110,537.318359 
	C324.053314,537.418579 290.055969,537.433655 256.059204,537.332703 
	C252.278641,537.321472 251.214630,538.674011 251.261963,542.314087 
	C251.378906,551.307190 251.755264,560.285339 252.039856,569.270203 
	C252.335938,578.618896 245.711731,584.832153 236.319809,585.007690 
	C229.051758,585.143433 223.123352,579.298950 222.739258,570.594727 
	C222.314621,560.971802 222.564911,551.314148 222.697327,541.674072 
	C222.741776,538.438660 221.570496,537.122925 218.310486,537.319397 
	C211.329834,537.740173 204.339676,538.005127 197.352875,538.322021 
	C193.198715,538.510437 189.039169,538.610046 184.890915,538.883972 
	C183.195404,538.995911 181.611710,539.471375 181.380157,541.684509 
	C180.741455,547.788818 179.997025,553.882141 179.337708,559.984436 
	C177.875275,573.520203 176.501144,587.065796 174.977768,600.594666 
	C172.823013,619.730408 170.462433,638.843445 168.383423,657.987183 
	C166.500946,675.321045 164.939758,692.689575 163.123337,710.030945 
	C161.272415,727.701599 159.299896,745.359680 157.349258,763.019714 
	C155.490036,779.852112 153.515610,796.672119 151.738876,813.513123 
	C150.800537,822.407349 148.045486,831.282715 149.715546,840.249268 
	C154.406967,865.437256 171.833084,879.707520 197.408798,879.632446 
	C208.068680,879.601196 218.726959,879.182068 229.387207,879.101440 
	C294.536377,878.608704 359.692871,879.079651 424.834747,877.650269 
	C437.714874,877.367676 447.297363,871.264709 454.035675,860.468384 
	C454.698761,859.405884 455.710327,858.286316 454.777954,856.816650 
	C453.026672,856.000000 451.164337,856.353760 449.360657,856.377075 
	C429.703644,856.631897 410.046570,857.196777 390.390747,857.151367 
	C364.745758,857.092102 342.762695,837.010681 339.540985,811.583008 
	C338.456543,803.024048 340.159485,794.709290 340.670013,785.351624 
M539.704285,723.375977 
	C538.690186,711.302917 537.388855,699.243774 536.805969,687.149902 
	C536.578552,682.432800 534.989929,681.270447 530.562927,681.289551 
	C503.413147,681.406921 476.261688,681.381531 449.112000,681.209717 
	C426.631683,681.067444 404.152161,680.710388 381.674652,680.313110 
	C378.077667,680.249573 376.193146,680.987305 376.040375,685.119507 
	C375.783142,692.076721 374.877350,699.007690 374.355011,705.958008 
	C373.235016,720.860901 372.267151,735.775635 371.086487,750.673584 
	C369.643188,768.885742 367.821198,787.070740 367.358978,805.348206 
	C367.308899,807.328430 367.378174,809.280579 367.959198,811.265503 
	C371.320862,822.750061 380.421539,829.530701 393.523285,829.586975 
	C403.674377,829.630615 413.826874,829.015442 423.980164,828.961243 
	C455.793915,828.791565 487.608490,828.776978 519.422485,828.645203 
	C535.562317,828.578369 547.004517,817.345398 546.527527,801.175171 
	C546.185608,789.583679 544.693359,778.024109 543.652466,766.455811 
	C542.388062,752.403687 541.058716,738.357422 539.704285,723.375977 
M693.072754,366.461090 
	C689.734863,376.979248 689.360474,387.650665 691.369812,398.457794 
	C696.757263,427.434845 726.912048,449.508331 755.731995,445.555542 
	C781.900757,441.966400 802.477722,422.649902 808.261047,396.244293 
	C815.205933,364.534882 795.263367,332.269958 763.860352,324.408905 
	C734.530212,317.066742 703.266235,335.358154 693.072754,366.461090 
M291.324799,422.808044 
	C269.791809,430.226410 256.402252,444.827698 252.717606,467.508820 
	C250.576294,480.689880 251.364777,494.059113 251.361404,507.361847 
	C251.360474,510.987671 253.902542,510.639404 256.237762,510.640137 
	C289.721344,510.650909 323.205231,510.589630 356.688171,510.737885 
	C360.789337,510.756042 361.795593,509.268555 361.723785,505.473114 
	C361.525269,494.981964 362.078796,484.462494 361.536865,473.995575 
	C360.890350,461.508789 357.748871,449.727386 348.924957,440.121155 
	C333.372040,423.189209 314.546814,417.024658 291.324799,422.808044 
M499.129272,653.681946 
	C505.069244,654.708862 505.684845,650.109497 507.142609,646.239014 
	C508.697052,642.111877 505.955505,640.458862 503.142242,638.844604 
	C498.090454,635.945984 492.892578,633.288818 487.949524,630.218811 
	C484.915619,628.334473 483.260681,628.966064 481.711243,631.987549 
	C480.339233,634.663025 478.313812,636.898926 475.735107,638.582031 
	C470.972473,641.690247 464.250427,641.565063 459.773071,638.228271 
	C455.505035,635.047363 453.945801,629.081299 455.773621,623.396423 
	C456.473724,621.218994 458.138397,619.373657 458.076904,616.666077 
	C453.637695,614.887695 449.171082,613.135254 444.426666,612.257507 
	C440.131775,611.462830 437.122009,612.987732 435.159515,617.104370 
	C430.577087,626.717163 425.704285,636.191101 421.062866,645.776367 
	C420.018066,647.934082 418.428192,650.031555 419.112640,653.681213 
	C445.435547,653.681213 471.821838,653.681213 499.129272,653.681946 
z"/>
<path fill="#000000" opacity="1.000000" stroke="none" 
	d="
M296.000000,365.377319 
	C270.673218,365.368378 245.846222,365.415619 221.019684,365.329987 
	C199.766068,365.256683 183.975601,350.907990 181.577133,329.897430 
	C180.228500,318.083557 180.926666,306.291870 181.324356,294.477722 
	C181.610077,285.990021 181.642319,277.491241 181.652618,268.997253 
	C181.685944,241.504547 182.179245,213.998367 181.475006,186.523514 
	C180.975510,167.036423 200.210648,149.952515 217.856506,149.763123 
	C244.844452,149.473465 271.842682,149.674835 298.829987,150.091568 
	C306.473480,150.209595 314.134827,150.497101 321.786682,150.740784 
	C325.420929,150.856522 326.853699,149.715210 326.751190,145.918549 
	C326.526428,137.593430 326.571655,129.256424 326.706757,120.927521 
	C326.825775,113.591187 331.186066,107.928337 337.834656,106.018005 
	C346.563599,103.509941 354.501465,109.393051 355.374268,118.741074 
	C356.181122,127.382713 356.568054,136.044464 356.158936,144.686157 
	C355.920776,149.716797 357.801819,150.860474 362.458130,150.722366 
	C409.921326,149.314529 457.400818,149.678711 504.876404,149.651779 
	C524.871155,149.640442 544.867310,149.787247 564.859924,149.579208 
	C572.507324,149.499634 580.123535,149.019424 587.676941,150.662415 
	C604.742493,154.374481 618.245667,170.877609 617.530151,188.120148 
	C616.508484,212.739151 616.106018,237.421677 616.595703,262.054077 
	C617.019592,283.376038 617.262817,304.693146 617.310730,326.014221 
	C617.360046,347.986359 599.310364,366.323792 577.403198,366.325012 
	C503.423126,366.329163 429.441559,366.411407 355.463928,365.937103 
	C335.814117,365.811096 316.156006,365.474701 296.000000,365.377319 
M366.499939,336.664276 
	C429.815704,336.663086 493.131500,336.677155 556.447266,336.637543 
	C562.938904,336.633484 569.445190,336.525269 575.918152,336.079620 
	C584.939148,335.458557 587.715637,332.194244 587.713928,322.968750 
	C587.705872,279.314240 587.697998,235.659744 587.686646,192.005234 
	C587.684082,182.187195 584.746277,179.270737 574.919067,179.273865 
	C511.103546,179.294189 447.287811,179.412109 383.472534,179.298843 
	C330.490356,179.204803 277.505524,179.825302 224.525864,178.794418 
	C214.927063,178.607635 210.378265,183.094498 210.360855,192.701874 
	C210.329147,210.196884 210.392319,227.692047 210.389343,245.187149 
	C210.384933,271.179840 210.334122,297.172577 210.352448,323.165253 
	C210.358780,332.156372 214.039780,335.800079 223.060028,336.052490 
	C228.885757,336.215485 234.709778,336.589722 240.534943,336.598236 
	C282.189880,336.659119 323.844910,336.650330 366.499939,336.664276 
z"/>
<path fill="#000000" opacity="1.000000" stroke="none" 
	d="
M801.743652,826.777344 
	C803.289185,824.577148 804.603271,822.650330 805.997009,820.783020 
	C809.652527,815.885620 814.624573,814.250793 820.592773,815.932434 
	C825.045410,817.186951 828.792847,821.845764 829.293030,827.112305 
	C831.505005,850.404968 835.582764,873.430420 839.139099,896.530701 
	C840.698181,906.657776 835.484009,913.625549 826.619995,913.360352 
	C822.572266,913.239197 819.838379,911.149292 817.512146,908.068909 
	C813.291138,902.479736 812.615540,895.832031 811.690430,889.258484 
	C810.558228,881.213013 809.541321,873.151306 808.412903,865.105225 
	C808.283569,864.182617 807.758545,863.315552 807.129395,861.671204 
	C797.609375,874.864136 788.485657,887.491394 779.381897,900.132935 
	C776.171082,904.591675 773.153503,909.161133 767.722534,911.399414 
	C761.470886,913.975952 757.121521,913.434937 753.158691,909.200562 
	C749.174316,904.943176 748.268127,898.756897 751.282043,893.472046 
	C756.731445,883.916504 762.949951,874.853088 769.832581,866.272217 
	C780.347961,853.161987 790.971130,840.138184 801.743652,826.777344 
z"/>
<path fill="#000000" opacity="1.000000" stroke="none" 
	d="
M422.320679,298.855682 
	C409.533905,290.006561 404.169739,277.757416 403.568298,262.909027 
	C403.076538,250.769257 405.157196,239.434464 412.370789,229.348923 
	C422.371338,215.366928 438.219910,210.210663 453.653473,213.301498 
	C470.052765,216.585754 481.517700,229.433655 484.247101,246.232147 
	C485.803955,255.814362 486.255035,265.410614 483.706696,274.895782 
	C476.548798,301.537994 447.917633,312.832642 422.320679,298.855682 
M461.359772,247.280670 
	C454.228333,233.385986 440.008362,230.743347 430.523132,241.550034 
	C423.210297,249.881668 422.234406,264.574677 428.384583,273.748322 
	C436.255737,285.488983 452.131866,285.382202 459.573517,273.408325 
	C464.571838,265.365845 464.776703,256.783295 461.359772,247.280670 
z"/>
<path fill="#000000" opacity="1.000000" stroke="none" 
	d="
M344.005310,284.260498 
	C344.111603,286.725128 344.165527,288.723877 344.264404,290.720428 
	C344.494110,295.358643 343.463684,299.628845 338.915192,301.636505 
	C333.785278,303.900726 328.472534,303.781769 323.745758,300.298737 
	C321.462585,298.616364 320.675262,296.032257 320.675293,293.234467 
	C320.675476,270.410583 320.601837,247.586273 320.730499,224.763107 
	C320.767456,218.204468 324.850159,214.026138 330.683502,213.801041 
	C337.175751,213.550537 342.508972,217.746307 343.531097,223.868423 
	C344.527283,229.835251 344.003845,235.840714 343.894775,241.821808 
	C343.843719,244.621292 344.611115,245.755783 347.504303,245.690598 
	C353.498749,245.555573 359.501984,245.529388 365.494537,245.703003 
	C368.861420,245.800537 369.847565,244.305939 369.766388,241.198227 
	C369.614166,235.370804 369.610077,229.536728 369.678619,223.706985 
	C369.764069,216.437988 373.596436,212.754761 380.939697,212.695724 
	C388.604492,212.634109 392.059479,215.851746 392.255066,223.424622 
	C392.896088,248.246246 391.150879,273.039124 391.304199,297.856628 
	C391.328552,301.803558 389.308441,304.326538 385.422546,305.502502 
	C376.865112,308.092224 368.722351,302.225952 368.674377,293.277222 
	C368.640472,286.946716 368.546509,280.611694 368.741821,274.286774 
	C368.850769,270.760162 367.843414,269.028503 363.986511,269.190521 
	C358.497894,269.421021 352.992065,269.358154 347.496460,269.259155 
	C344.564240,269.206299 343.110657,270.262329 343.345459,273.335358 
	C343.611511,276.817108 343.768829,280.307190 344.005310,284.260498 
z"/>
<path fill="#000000" opacity="1.000000" stroke="none" 
	d="
M248.271545,224.507172 
	C258.059204,209.605804 283.659882,209.091263 296.761383,220.672348 
	C302.314484,225.581024 300.755920,235.370010 294.304047,239.131180 
	C291.288696,240.889008 288.633698,240.412048 286.038025,238.273239 
	C283.611938,236.274185 281.360413,234.077179 278.207275,233.050064 
	C275.330505,232.112991 272.646393,232.220749 269.956573,233.410233 
	C265.268982,235.483170 264.739868,239.730286 269.003845,242.641769 
	C272.860016,245.274780 277.221100,247.004028 281.608459,248.609329 
	C286.780731,250.501801 291.566223,253.038132 296.189484,256.120239 
	C310.402344,265.595276 306.645203,295.907074 289.289459,302.062500 
	C275.375031,306.997375 262.105072,305.680664 249.506607,298.322235 
	C242.067047,293.977051 239.837372,286.982452 243.158051,280.583466 
	C246.773392,273.616638 254.315109,272.044495 260.204163,277.258148 
	C263.271240,279.973480 266.591461,281.981903 270.510254,283.107361 
	C272.816925,283.769806 275.119934,283.936371 277.385773,283.198547 
	C279.996582,282.348358 282.303406,281.096985 282.697784,277.918884 
	C283.083649,274.809357 281.530273,272.637390 279.009003,271.429688 
	C275.119293,269.566498 271.064117,268.025970 267.011841,266.530823 
	C262.149109,264.736633 257.471832,262.617249 253.200043,259.657715 
	C247.440628,255.667557 244.599960,250.258591 244.605972,243.163651 
	C244.611359,236.792526 244.575851,230.496521 248.271545,224.507172 
z"/>
<path fill="#000000" opacity="1.000000" stroke="none" 
	d="
M549.491699,219.376617 
	C560.466797,227.944702 563.512756,240.139496 560.457275,252.199677 
	C557.255920,264.835480 547.911560,271.871124 533.988159,273.490997 
	C530.492004,273.897766 526.978882,274.314148 523.539307,273.846527 
	C519.051697,273.236450 518.039124,275.217529 518.276123,279.170898 
	C518.514893,283.154053 518.372925,287.163086 518.322571,291.159851 
	C518.228271,298.646057 514.406982,303.161957 508.065002,303.365967 
	C500.880646,303.597076 495.836792,299.404297 495.893768,291.924011 
	C496.025513,274.623962 496.571045,257.321014 497.318329,240.035217 
	C497.563080,234.373764 497.426819,228.719833 497.689606,223.069733 
	C497.925476,217.998901 500.494568,214.304581 505.370361,214.155701 
	C516.148865,213.826553 526.968384,212.804611 537.743469,214.461014 
	C541.952881,215.108109 545.660156,216.906616 549.491699,219.376617 
M537.236572,237.329956 
	C532.306030,232.218216 525.766602,232.154083 520.052368,233.951111 
	C516.360596,235.112106 518.485962,240.470871 518.409668,243.903290 
	C518.172546,254.580963 519.006897,255.174271 529.573181,253.589676 
	C537.992065,252.327133 541.467834,245.612457 537.236572,237.329956 
z"/>
</svg>