<svg version="1.1" id="Layer_1" xmlns="http://www.w3.org/2000/svg" xmlns:xlink="http://www.w3.org/1999/xlink" x="0px" y="0px"
	 width="100%" viewBox="0 0 1024 1024" enable-background="new 0 0 1024 1024" xml:space="preserve">
	 <rect width="100%" height="100%" fill="#295f62"/>
<path fill="#ffffff" opacity="1.000000" stroke="none" 
	d="
M674.568237,590.275269 
	C670.567139,569.328064 666.596313,548.809570 662.668152,528.282837 
	C659.240906,510.373932 655.861694,492.455780 652.448975,474.476959 
	C649.946167,474.427582 648.729370,476.188293 647.419373,477.542999 
	C632.007263,493.481232 613.251587,499.955322 591.142395,499.552460 
	C555.988037,498.911957 520.812927,499.478302 485.648438,499.248108 
	C480.494598,499.214386 479.222412,500.749573 479.243317,505.749573 
	C479.426483,549.581238 479.361572,593.413940 479.333099,637.246399 
	C479.328033,644.999695 475.405792,648.987061 468.602997,648.394287 
	C463.735016,647.970093 460.589569,644.720032 459.810760,639.079712 
	C459.561829,637.276855 459.671906,635.420166 459.671326,633.588074 
	C459.659760,597.422119 459.656036,561.256226 459.650879,525.090271 
	C459.650513,522.622986 459.650848,520.155701 458.641937,517.284241 
	C453.835236,524.722839 449.024597,532.158997 444.222687,539.600647 
	C435.193604,553.593201 426.175262,567.592651 417.134491,581.577576 
	C416.230896,582.975281 415.264526,584.341980 414.223175,585.639404 
	C406.699463,595.013733 399.608063,596.757690 389.434113,590.381287 
	C369.403137,577.827271 349.527863,565.005188 329.931549,551.784973 
	C318.925140,544.359802 317.618958,534.757690 324.435150,523.428589 
	C344.958038,489.317688 366.274384,455.702606 387.680298,422.145782 
	C394.210022,411.909485 403.452332,409.988373 413.932526,415.891754 
	C417.548737,417.928711 421.015442,421.379639 425.037811,421.180634 
	C429.115234,420.978912 430.422180,415.840332 433.270325,413.158478 
	C443.352600,403.664825 455.443756,398.885406 468.987183,398.762634 
	C505.316803,398.433350 541.651672,398.569946 577.983765,398.702972 
	C587.053467,398.736176 594.301941,395.506012 600.662903,389.108429 
	C624.982117,364.649170 649.478699,340.366211 674.793823,315.135559 
	C651.184753,314.857056 630.735535,308.493500 613.423462,293.617371 
	C596.002136,278.647400 585.720886,259.678925 582.749329,236.997635 
	C576.804077,191.619202 602.946838,157.067505 634.085510,143.008026 
	C669.873596,126.849281 711.261780,135.566940 737.223816,164.464188 
	C753.911987,183.039032 761.419678,204.929718 760.423584,229.972137 
	C759.433594,254.860214 749.027283,275.284210 731.110901,293.086700 
	C741.794861,294.695282 751.368713,296.691498 760.093323,301.355652 
	C784.775085,314.550323 800.484009,334.860046 806.150513,362.193085 
	C813.961487,399.870392 820.987122,437.710602 828.336487,475.483490 
	C834.544189,507.388275 840.734985,539.296326 846.930298,571.203491 
	C848.669250,580.159424 850.436523,589.110107 852.118103,598.076904 
	C853.404602,604.936523 850.672791,610.319580 845.542542,611.279846 
	C838.717651,612.557312 834.397583,609.533447 832.886169,601.846863 
	C828.053589,577.270020 823.388428,552.660217 818.643188,528.066162 
	C812.484070,496.144196 806.345886,464.218140 800.129761,432.307281 
	C796.038269,411.303497 792.074097,390.270050 787.596069,369.347687 
	C783.172302,348.678711 773.404602,331.411011 754.290344,320.653809 
	C730.610657,307.327240 703.805298,313.648315 686.669617,330.495789 
	C661.478760,355.263092 636.658569,380.407959 611.740784,405.452087 
	C603.083862,414.152893 592.951843,418.570892 580.475281,418.485168 
	C544.144409,418.235443 507.810730,418.365936 471.478180,418.400269 
	C451.815155,418.418854 438.113953,432.275085 438.322266,451.802917 
	C438.464111,465.103058 449.730072,476.800903 463.989563,478.668945 
	C469.618896,479.406372 475.239502,479.663696 480.908966,479.655670 
	C517.241455,479.604248 553.580994,479.207245 589.903992,479.798676 
	C609.253113,480.113739 624.666626,473.102966 638.029602,459.663055 
	C659.531128,438.037628 681.347107,416.724670 703.047485,395.297211 
	C705.055054,393.314850 707.024536,391.107880 710.037964,390.760803 
	C713.969604,390.307953 717.829529,390.482391 720.240356,394.342133 
	C722.718384,398.309570 722.353638,402.352753 719.719360,406.018616 
	C718.081421,408.297943 715.966187,410.255737 713.944153,412.234070 
	C700.484619,425.402588 687.044556,438.591919 673.471741,451.643066 
	C670.321716,454.672058 669.205200,457.494934 670.115662,462.152100 
	C678.643677,505.775330 686.819336,549.467468 695.098633,593.139343 
	C697.786133,607.315491 700.511169,621.484619 703.154236,635.669006 
	C704.290405,641.766479 701.141418,647.330078 696.181580,648.281860 
	C690.045166,649.459534 685.131226,646.177185 683.846130,639.591003 
	C680.670044,623.313538 677.681152,606.999695 674.568237,590.275269 
M602.337524,217.760895 
	C602.375000,223.423508 601.788269,229.171646 602.550598,234.734924 
	C607.748474,272.662964 642.654663,299.362732 680.422058,294.574615 
	C720.023254,289.554016 747.429382,250.546036 739.398010,211.357376 
	C732.462769,177.517410 701.609375,153.684158 668.119141,155.107956 
	C634.528748,156.536026 605.479797,183.258240 602.337524,217.760895 
M418.182831,447.058350 
	C420.224060,441.177002 416.014465,439.115509 412.021912,436.815002 
	C403.955811,432.167358 403.940765,432.132446 399.004303,440.079559 
	C380.472931,469.912537 362.059540,499.820007 343.296692,529.506653 
	C340.524414,533.892883 341.243073,536.050476 345.156250,538.613770 
	C361.998840,549.646484 378.771912,560.785767 395.518097,571.964478 
	C398.012512,573.629578 399.771454,573.324036 401.323914,570.861328 
	C402.210449,569.455017 403.181030,568.101685 404.065582,566.694214 
	C417.527039,545.274109 430.948303,523.828796 444.455139,502.437378 
	C448.584381,495.897675 448.781128,495.652496 442.168152,491.832184 
	C425.199280,482.029236 417.788177,467.097015 418.182831,447.058350 
z"/>
<path fill="#ffffff" opacity="1.000000" stroke="none" 
	d="
M240.194855,637.586548 
	C239.731583,642.407166 238.405594,646.247192 233.837769,647.928650 
	C227.627411,650.214905 221.490845,646.327087 220.749390,639.619812 
	C220.549026,637.807190 220.664352,635.957825 220.664337,634.125305 
	C220.663513,565.310059 221.173279,496.489838 220.503799,427.681122 
	C219.991623,375.039398 257.944855,332.414185 308.013855,325.239502 
	C334.031006,321.511353 360.798584,320.458313 386.531433,329.473633 
	C412.212280,338.470673 431.761017,355.168854 446.367584,377.850677 
	C451.475647,385.782715 449.072235,393.292145 441.269318,394.632233 
	C436.142029,395.512817 432.839142,392.859558 430.288544,388.650757 
	C417.280060,367.185272 398.698059,352.945068 374.513519,346.177277 
	C367.782349,344.293640 360.857147,343.225189 353.835022,343.408173 
	C338.061615,343.819153 322.247345,342.270386 306.529724,345.281311 
	C272.619812,351.777161 245.970901,379.929840 241.198578,414.278076 
	C240.111542,422.101776 240.270035,429.885956 240.261154,437.686249 
	C240.185532,504.168457 240.216873,570.650818 240.194855,637.586548 
z"/>
<path fill="#ffffff" opacity="1.000000" stroke="none" 
	d="
M407.426147,176.616730 
	C443.575409,229.224594 416.046875,299.681946 353.915955,312.784241 
	C308.686462,322.322327 264.890839,295.012329 252.771286,249.389297 
	C239.341782,198.835098 272.187988,148.030624 324.011810,141.073288 
	C356.012512,136.777191 383.233826,147.971146 404.380585,172.839645 
	C405.351105,173.981003 406.280792,175.157104 407.426147,176.616730 
M312.333008,164.851013 
	C283.823944,175.768906 266.735687,204.126129 270.576538,235.942673 
	C274.980194,272.421722 309.687439,299.825836 345.829437,293.813202 
	C378.939880,288.304901 408.654816,258.021667 402.209229,217.038773 
	C395.551331,174.706070 353.401367,150.592712 312.333008,164.851013 
z"/>
<path fill="#ffffff" opacity="1.000000" stroke="none" 
	d="
M398.161621,513.688232 
	C404.885742,511.765564 410.185120,514.397522 411.941254,520.222290 
	C413.458466,525.254700 410.223511,531.012573 404.846497,532.850098 
	C399.910645,534.536865 394.075073,531.301331 392.243591,525.862427 
	C390.755035,521.441772 392.549744,517.533997 398.161621,513.688232 
z"/>
</svg>